%TF.GenerationSoftware,KiCad,Pcbnew,(6.0.5)*%
%TF.CreationDate,2022-07-26T12:17:50-04:00*%
%TF.ProjectId,Clock_design,436c6f63-6b5f-4646-9573-69676e2e6b69,rev?*%
%TF.SameCoordinates,PX56c8cc0PY97a25c0*%
%TF.FileFunction,Legend,Bot*%
%TF.FilePolarity,Positive*%
%FSLAX46Y46*%
G04 Gerber Fmt 4.6, Leading zero omitted, Abs format (unit mm)*
G04 Created by KiCad (PCBNEW (6.0.5)) date 2022-07-26 12:17:50*
%MOMM*%
%LPD*%
G01*
G04 APERTURE LIST*
G04 Aperture macros list*
%AMRoundRect*
0 Rectangle with rounded corners*
0 $1 Rounding radius*
0 $2 $3 $4 $5 $6 $7 $8 $9 X,Y pos of 4 corners*
0 Add a 4 corners polygon primitive as box body*
4,1,4,$2,$3,$4,$5,$6,$7,$8,$9,$2,$3,0*
0 Add four circle primitives for the rounded corners*
1,1,$1+$1,$2,$3*
1,1,$1+$1,$4,$5*
1,1,$1+$1,$6,$7*
1,1,$1+$1,$8,$9*
0 Add four rect primitives between the rounded corners*
20,1,$1+$1,$2,$3,$4,$5,0*
20,1,$1+$1,$4,$5,$6,$7,0*
20,1,$1+$1,$6,$7,$8,$9,0*
20,1,$1+$1,$8,$9,$2,$3,0*%
G04 Aperture macros list end*
%ADD10C,0.150000*%
%ADD11C,0.120000*%
%ADD12C,3.200000*%
%ADD13R,1.600000X1.600000*%
%ADD14O,1.600000X1.600000*%
%ADD15C,1.600000*%
%ADD16C,1.440000*%
%ADD17R,2.000000X2.000000*%
%ADD18C,2.000000*%
%ADD19C,3.000000*%
%ADD20R,1.800000X2.600000*%
%ADD21O,1.800000X2.600000*%
%ADD22RoundRect,0.500000X0.500000X-1.750000X0.500000X1.750000X-0.500000X1.750000X-0.500000X-1.750000X0*%
%ADD23RoundRect,0.500000X1.500000X0.500000X-1.500000X0.500000X-1.500000X-0.500000X1.500000X-0.500000X0*%
%ADD24R,1.700000X1.700000*%
%ADD25O,1.700000X1.700000*%
%ADD26R,3.000000X3.000000*%
G04 APERTURE END LIST*
D10*
%TO.C,J2*%
X59333333Y27387620D02*
X59333333Y26673334D01*
X59380952Y26530477D01*
X59476190Y26435239D01*
X59619047Y26387620D01*
X59714285Y26387620D01*
X58904761Y27292381D02*
X58857142Y27340000D01*
X58761904Y27387620D01*
X58523809Y27387620D01*
X58428571Y27340000D01*
X58380952Y27292381D01*
X58333333Y27197143D01*
X58333333Y27101905D01*
X58380952Y26959048D01*
X58952380Y26387620D01*
X58333333Y26387620D01*
%TO.C,J1*%
X63097380Y101338334D02*
X63811666Y101338334D01*
X63954523Y101385953D01*
X64049761Y101481191D01*
X64097380Y101624048D01*
X64097380Y101719286D01*
X64097380Y100338334D02*
X64097380Y100909762D01*
X64097380Y100624048D02*
X63097380Y100624048D01*
X63240238Y100719286D01*
X63335476Y100814524D01*
X63383095Y100909762D01*
%TO.C,J3*%
X57632380Y80833334D02*
X58346666Y80833334D01*
X58489523Y80880953D01*
X58584761Y80976191D01*
X58632380Y81119048D01*
X58632380Y81214286D01*
X57632380Y80452381D02*
X57632380Y79833334D01*
X58013333Y80166667D01*
X58013333Y80023810D01*
X58060952Y79928572D01*
X58108571Y79880953D01*
X58203809Y79833334D01*
X58441904Y79833334D01*
X58537142Y79880953D01*
X58584761Y79928572D01*
X58632380Y80023810D01*
X58632380Y80309524D01*
X58584761Y80404762D01*
X58537142Y80452381D01*
%TO.C,BT1*%
X11428588Y61649401D02*
X11476207Y61506544D01*
X11523826Y61458925D01*
X11619064Y61411306D01*
X11761921Y61411306D01*
X11857159Y61458925D01*
X11904778Y61506544D01*
X11952397Y61601782D01*
X11952397Y61982734D01*
X10952397Y61982734D01*
X10952397Y61649401D01*
X11000017Y61554163D01*
X11047636Y61506544D01*
X11142874Y61458925D01*
X11238112Y61458925D01*
X11333350Y61506544D01*
X11380969Y61554163D01*
X11428588Y61649401D01*
X11428588Y61982734D01*
X10952397Y61125591D02*
X10952397Y60554163D01*
X11952397Y60839877D02*
X10952397Y60839877D01*
X11952397Y59697020D02*
X11952397Y60268448D01*
X11952397Y59982734D02*
X10952397Y59982734D01*
X11095255Y60077972D01*
X11190493Y60173210D01*
X11238112Y60268448D01*
X16107159Y57435115D02*
X16107159Y56292258D01*
X16678588Y56863686D02*
X15535731Y56863686D01*
%TO.C,G\u002A\u002A\u002A*%
G36*
X67355592Y47635892D02*
G01*
X67227348Y47311832D01*
X67045074Y47017227D01*
X66818457Y46773033D01*
X66770113Y46732053D01*
X66647311Y46638012D01*
X66519653Y46559824D01*
X66363523Y46484114D01*
X66155305Y46397511D01*
X66062171Y46371620D01*
X65895417Y46356132D01*
X65665196Y46360571D01*
X65492428Y46373127D01*
X65343097Y46396815D01*
X65214380Y46437778D01*
X65074943Y46503608D01*
X64778953Y46676984D01*
X64527802Y46868092D01*
X64346698Y47061575D01*
X64312184Y47107709D01*
X64218951Y47230273D01*
X64141490Y47329576D01*
X64055531Y47437198D01*
X62730379Y47463715D01*
X62662798Y47465079D01*
X62252355Y47474061D01*
X61913230Y47483070D01*
X61638304Y47492603D01*
X61420459Y47503155D01*
X61252573Y47515223D01*
X61127528Y47529301D01*
X61038203Y47545887D01*
X60977480Y47565476D01*
X60938239Y47588564D01*
X60913694Y47613431D01*
X60840333Y47709349D01*
X60738811Y47859331D01*
X60615785Y48053043D01*
X60611527Y48060057D01*
X64889422Y48060057D01*
X64890245Y47924204D01*
X64919823Y47814929D01*
X64988508Y47689159D01*
X65028282Y47632019D01*
X65148906Y47498326D01*
X65277570Y47393951D01*
X65291907Y47385196D01*
X65448644Y47317806D01*
X65633083Y47274432D01*
X65813097Y47260412D01*
X65956557Y47281089D01*
X66013429Y47302388D01*
X66247894Y47432105D01*
X66419465Y47604982D01*
X66524370Y47816134D01*
X66558835Y48060679D01*
X66552975Y48158974D01*
X66489498Y48402500D01*
X66363906Y48607500D01*
X66185617Y48764695D01*
X65964049Y48864804D01*
X65708619Y48898545D01*
X65650620Y48897244D01*
X65517050Y48881777D01*
X65401538Y48839145D01*
X65265034Y48756876D01*
X65177890Y48693321D01*
X65026406Y48533029D01*
X64934208Y48338384D01*
X64891645Y48092205D01*
X64889422Y48060057D01*
X60611527Y48060057D01*
X60477908Y48280148D01*
X60331836Y48530312D01*
X60312600Y48563579D01*
X60233473Y48697499D01*
X60134938Y48861410D01*
X60033865Y49027182D01*
X60002631Y49078309D01*
X59899353Y49251143D01*
X59803633Y49416287D01*
X59732839Y49543927D01*
X59688302Y49625064D01*
X59623291Y49734675D01*
X59576884Y49802300D01*
X59572148Y49808633D01*
X59530656Y49873618D01*
X59456464Y49995996D01*
X59355013Y50166573D01*
X59231747Y50376152D01*
X59092110Y50615539D01*
X58941545Y50875539D01*
X58901691Y50944464D01*
X58752830Y51199453D01*
X58615552Y51430878D01*
X58495408Y51629633D01*
X58397948Y51786614D01*
X58328723Y51892719D01*
X58293283Y51938841D01*
X58269957Y51951994D01*
X58171771Y51978136D01*
X58046711Y51988528D01*
X57910890Y51996230D01*
X57665492Y52034060D01*
X57400679Y52096642D01*
X57147077Y52176342D01*
X56935314Y52265526D01*
X56881427Y52294684D01*
X56690945Y52424632D01*
X56511769Y52583533D01*
X56364547Y52751438D01*
X56269928Y52908397D01*
X56218594Y53025079D01*
X56161057Y53150207D01*
X56156743Y53159479D01*
X56078469Y53410890D01*
X56061193Y53586099D01*
X56980099Y53586099D01*
X57030742Y53359667D01*
X57042617Y53331251D01*
X57159886Y53160587D01*
X57338982Y53015782D01*
X57565383Y52909074D01*
X57659132Y52884449D01*
X57882472Y52880374D01*
X58099727Y52947938D01*
X58298773Y53082181D01*
X58467485Y53278143D01*
X58550995Y53420808D01*
X58622962Y53629252D01*
X58622441Y53829615D01*
X58548636Y54033501D01*
X58400754Y54252510D01*
X58319927Y54336943D01*
X58132528Y54455179D01*
X57918093Y54514471D01*
X57692935Y54515734D01*
X57473366Y54459881D01*
X57275697Y54347829D01*
X57116242Y54180490D01*
X57047059Y54052042D01*
X56986532Y53826435D01*
X56980099Y53586099D01*
X56061193Y53586099D01*
X56050196Y53697620D01*
X56072287Y53993943D01*
X56145109Y54274131D01*
X56157156Y54304759D01*
X56260109Y54505591D01*
X56399925Y54712948D01*
X56556328Y54899387D01*
X56709046Y55037466D01*
X56760752Y55074369D01*
X56993408Y55218107D01*
X57216616Y55309985D01*
X57458771Y55359226D01*
X57748263Y55375054D01*
X57847497Y55375199D01*
X58019710Y55369819D01*
X58154174Y55352836D01*
X58279427Y55319624D01*
X58424006Y55265560D01*
X58442709Y55257951D01*
X58580455Y55197685D01*
X58687494Y55143825D01*
X58742003Y55107236D01*
X58757333Y55091567D01*
X58829940Y55029112D01*
X58927655Y54953497D01*
X58933792Y54948854D01*
X59038187Y54844400D01*
X59155104Y54691087D01*
X59269310Y54512592D01*
X59365574Y54332590D01*
X59428664Y54174757D01*
X59474436Y53965935D01*
X59496475Y53650499D01*
X59494592Y53629252D01*
X59469005Y53340506D01*
X59442628Y53210800D01*
X59415785Y53108337D01*
X59395516Y53061768D01*
X59390476Y53056414D01*
X59352599Y52997774D01*
X59292079Y52891585D01*
X59219450Y52756127D01*
X59070265Y52470360D01*
X59318499Y52000884D01*
X59332240Y51974945D01*
X59430334Y51792412D01*
X59519967Y51629848D01*
X59591727Y51504105D01*
X59636203Y51432034D01*
X59668505Y51382757D01*
X59739257Y51265116D01*
X59812886Y51133912D01*
X59853405Y51059571D01*
X59939768Y50904948D01*
X60048128Y50715296D01*
X60183259Y50482359D01*
X60349933Y50197878D01*
X60552922Y49853596D01*
X60689426Y49621419D01*
X60844818Y49355176D01*
X60997825Y49091375D01*
X61129292Y48862942D01*
X61405227Y48380704D01*
X61663599Y48356895D01*
X61730012Y48352295D01*
X61887171Y48345443D01*
X62099617Y48339038D01*
X62352772Y48333438D01*
X62632056Y48329000D01*
X62922891Y48326079D01*
X63923810Y48319072D01*
X64104857Y48665188D01*
X64161486Y48770177D01*
X64348986Y49068937D01*
X64544613Y49301782D01*
X64758133Y49479039D01*
X64999312Y49611036D01*
X65064535Y49639219D01*
X65186526Y49687379D01*
X65293134Y49717529D01*
X65408073Y49733712D01*
X65555060Y49739972D01*
X65757809Y49740351D01*
X65873635Y49739501D01*
X66041042Y49735175D01*
X66162712Y49723799D01*
X66260644Y49701243D01*
X66356840Y49663378D01*
X66473302Y49606075D01*
X66497604Y49593205D01*
X66696642Y49460171D01*
X66902594Y49281914D01*
X67090905Y49081691D01*
X67237019Y48882759D01*
X67247661Y48864480D01*
X67315461Y48704814D01*
X67372681Y48501376D01*
X67411949Y48285202D01*
X67425896Y48087329D01*
X67424601Y48060679D01*
X67420121Y47968449D01*
X67355592Y47635892D01*
G37*
G36*
X45008513Y47655821D02*
G01*
X45008513Y48391189D01*
X45007184Y48622552D01*
X45003475Y48824496D01*
X44997824Y48984059D01*
X44990671Y49088870D01*
X44982453Y49126556D01*
X44975946Y49125136D01*
X44918844Y49094209D01*
X44833392Y49035557D01*
X44667289Y48931313D01*
X44386788Y48825202D01*
X44094850Y48789930D01*
X43802668Y48823715D01*
X43521435Y48924774D01*
X43262345Y49091327D01*
X43036590Y49321590D01*
X42941400Y49459369D01*
X42811980Y49735107D01*
X42739294Y50030358D01*
X42723244Y50291855D01*
X43367165Y50291855D01*
X43368655Y50224927D01*
X43384904Y50083943D01*
X43427355Y49953069D01*
X43506411Y49795195D01*
X43577604Y49678702D01*
X43674690Y49553480D01*
X43759854Y49479347D01*
X43786343Y49466093D01*
X43914095Y49422393D01*
X44054522Y49395379D01*
X44281056Y49392375D01*
X44516254Y49449978D01*
X44713251Y49576204D01*
X44875863Y49772806D01*
X44911738Y49833701D01*
X44952354Y49933034D01*
X44970520Y50049540D01*
X44973043Y50214138D01*
X44961521Y50395098D01*
X44901177Y50670598D01*
X44791566Y50891474D01*
X44634916Y51052204D01*
X44554407Y51105590D01*
X44461736Y51146616D01*
X44350689Y51165843D01*
X44190798Y51171453D01*
X44070803Y51170310D01*
X43945800Y51157389D01*
X43847259Y51124489D01*
X43744192Y51064168D01*
X43643268Y50983875D01*
X43493488Y50791653D01*
X43399056Y50556068D01*
X43367165Y50291855D01*
X42723244Y50291855D01*
X42720670Y50333783D01*
X42753438Y50634043D01*
X42834927Y50919799D01*
X42962466Y51179712D01*
X43133385Y51402442D01*
X43345013Y51576652D01*
X43594679Y51691002D01*
X43858193Y51741838D01*
X44183628Y51742071D01*
X44508407Y51682270D01*
X44807573Y51565027D01*
X44828320Y51554338D01*
X44918861Y51517988D01*
X44979550Y51528781D01*
X45041891Y51590087D01*
X45097348Y51633941D01*
X45205681Y51670426D01*
X45376197Y51694950D01*
X45644507Y51721259D01*
X45644507Y47655821D01*
X45008513Y47655821D01*
G37*
G36*
X58457147Y49314389D02*
G01*
X58359700Y49034464D01*
X58196306Y48765198D01*
X57976174Y48520030D01*
X57708513Y48312395D01*
X57544105Y48215069D01*
X57364793Y48135757D01*
X57172202Y48085831D01*
X56933396Y48054327D01*
X56914461Y48052571D01*
X56763739Y48041687D01*
X56642558Y48038035D01*
X56575649Y48042437D01*
X56544354Y48050439D01*
X56444156Y48074099D01*
X56317277Y48102670D01*
X56248492Y48119713D01*
X56131328Y48157686D01*
X56058904Y48193350D01*
X56038438Y48208185D01*
X55949936Y48264285D01*
X55838482Y48328404D01*
X55779692Y48365380D01*
X55620043Y48504660D01*
X55460427Y48691633D01*
X55317101Y48905774D01*
X55206322Y49126556D01*
X55202272Y49136524D01*
X55120268Y49412322D01*
X55095952Y49699046D01*
X55098506Y49722801D01*
X56001455Y49722801D01*
X56009092Y49591362D01*
X56074704Y49345676D01*
X56204364Y49141798D01*
X56394314Y48986774D01*
X56396242Y48985647D01*
X56633150Y48886510D01*
X56864461Y48861295D01*
X57080422Y48904583D01*
X57271279Y49010951D01*
X57427277Y49174982D01*
X57538663Y49391255D01*
X57595683Y49654349D01*
X57602389Y49738850D01*
X57601106Y49868696D01*
X57574533Y49978882D01*
X57515821Y50108346D01*
X57414432Y50266016D01*
X57237181Y50430047D01*
X57027355Y50530360D01*
X56797512Y50563698D01*
X56560208Y50526804D01*
X56327999Y50416422D01*
X56279702Y50381729D01*
X56126317Y50212060D01*
X56033259Y49991759D01*
X56001455Y49722801D01*
X55098506Y49722801D01*
X55129498Y50011104D01*
X55221075Y50362906D01*
X55253109Y50466376D01*
X55299578Y50631400D01*
X55331528Y50764890D01*
X55343411Y50844984D01*
X55339580Y50900583D01*
X55324463Y50968325D01*
X55293878Y51053240D01*
X55243659Y51163867D01*
X55169635Y51308750D01*
X55067640Y51496431D01*
X54933506Y51735451D01*
X54763064Y52034353D01*
X54614488Y52294585D01*
X54437415Y52608223D01*
X54295749Y52864766D01*
X54186303Y53070714D01*
X54105892Y53232569D01*
X54051330Y53356832D01*
X54019429Y53450003D01*
X54007003Y53518584D01*
X54010867Y53569076D01*
X54030175Y53617354D01*
X54083000Y53728254D01*
X54162072Y53885739D01*
X54260780Y54077364D01*
X54372513Y54290686D01*
X54490659Y54513262D01*
X54608608Y54732649D01*
X54719747Y54936403D01*
X54817465Y55112082D01*
X54895151Y55247241D01*
X54946193Y55329438D01*
X54982117Y55386090D01*
X55051691Y55507444D01*
X55123389Y55642731D01*
X55172959Y55737155D01*
X55232188Y55841131D01*
X55271342Y55899161D01*
X55279608Y55910730D01*
X55324233Y55982924D01*
X55400573Y56111702D01*
X55503520Y56288274D01*
X55627965Y56503849D01*
X55768800Y56749639D01*
X55920916Y57016854D01*
X56529954Y58090093D01*
X56445588Y58229217D01*
X56427218Y58259091D01*
X56371674Y58344265D01*
X56337927Y58388215D01*
X56337299Y58388805D01*
X56310416Y58436022D01*
X56264171Y58535458D01*
X56208195Y58666463D01*
X56201657Y58682533D01*
X56097157Y59044040D01*
X56071749Y59407427D01*
X56933999Y59407427D01*
X56942474Y59274361D01*
X56996067Y59040408D01*
X57091430Y58834000D01*
X57219748Y58671956D01*
X57372209Y58571099D01*
X57403357Y58560115D01*
X57559537Y58527841D01*
X57745731Y58512947D01*
X57926464Y58516951D01*
X58066259Y58541373D01*
X58258993Y58631068D01*
X58419962Y58778796D01*
X58526851Y58981164D01*
X58583093Y59242832D01*
X58588990Y59372009D01*
X58547713Y59616362D01*
X58437223Y59824758D01*
X58261078Y59991679D01*
X58022837Y60111607D01*
X57835885Y60147989D01*
X57619634Y60129116D01*
X57410575Y60056016D01*
X57223096Y59937993D01*
X57071583Y59784352D01*
X56970422Y59604395D01*
X56933999Y59407427D01*
X56071749Y59407427D01*
X56071672Y59408531D01*
X56125064Y59771849D01*
X56257193Y60129839D01*
X56300820Y60217949D01*
X56386742Y60370133D01*
X56476266Y60484666D01*
X56591307Y60586784D01*
X56753776Y60701722D01*
X56882330Y60779262D01*
X57210366Y60916276D01*
X57565404Y60990788D01*
X57926100Y60997414D01*
X58223551Y60945237D01*
X58540334Y60824680D01*
X58820889Y60646681D01*
X59049289Y60419434D01*
X59094779Y60359757D01*
X59287440Y60037834D01*
X59407108Y59702258D01*
X59452784Y59372009D01*
X59454238Y59361496D01*
X59429280Y59024019D01*
X59332686Y58698294D01*
X59164907Y58392790D01*
X58926397Y58115977D01*
X58910985Y58101475D01*
X58687274Y57919326D01*
X58453138Y57787004D01*
X58192556Y57698985D01*
X57889508Y57649745D01*
X57527975Y57633760D01*
X57267937Y57632973D01*
X56854855Y56907542D01*
X56765781Y56751492D01*
X56552489Y56380400D01*
X56332775Y56001296D01*
X56117927Y55633538D01*
X55919237Y55296486D01*
X55747992Y55009499D01*
X55697551Y54922589D01*
X55618362Y54780320D01*
X55538463Y54631877D01*
X55471760Y54509930D01*
X55416135Y54416489D01*
X55384555Y54373505D01*
X55368863Y54353584D01*
X55319909Y54275132D01*
X55249218Y54152885D01*
X55166223Y54002855D01*
X55125803Y53927511D01*
X55050769Y53777613D01*
X55008505Y53668734D01*
X54992612Y53581808D01*
X54996690Y53497772D01*
X55010085Y53438796D01*
X55054353Y53319348D01*
X55130140Y53155661D01*
X55239792Y52943240D01*
X55385657Y52677594D01*
X55570080Y52354229D01*
X55795409Y51968653D01*
X56123525Y51412159D01*
X56757021Y51388057D01*
X56996427Y51376815D01*
X57236416Y51358553D01*
X57400401Y51335869D01*
X57490294Y51308558D01*
X57529862Y51285457D01*
X57636683Y51216507D01*
X57752736Y51135385D01*
X57859081Y51056015D01*
X57936778Y50992319D01*
X57966885Y50958220D01*
X57981680Y50932199D01*
X58037733Y50861319D01*
X58121247Y50766259D01*
X58148420Y50735488D01*
X58319835Y50474648D01*
X58432900Y50165745D01*
X58485687Y49816010D01*
X58483792Y49738850D01*
X58476274Y49432673D01*
X58457147Y49314389D01*
G37*
G36*
X47781518Y52884392D02*
G01*
X47981226Y52871738D01*
X48143992Y52849081D01*
X48249068Y52816398D01*
X48299980Y52784199D01*
X48436628Y52667125D01*
X48578191Y52512570D01*
X48703866Y52344599D01*
X48792856Y52187276D01*
X48846403Y51995876D01*
X48854025Y51755736D01*
X48809426Y51514314D01*
X48715106Y51300123D01*
X48709418Y51291177D01*
X48593172Y51154388D01*
X48428913Y51013756D01*
X48242344Y50888901D01*
X48059167Y50799441D01*
X47934193Y50750524D01*
X47653535Y50628005D01*
X47396211Y50498864D01*
X47179981Y50372380D01*
X47022606Y50257834D01*
X46909690Y50137888D01*
X46850259Y49999289D01*
X46865492Y49849651D01*
X46954048Y49677621D01*
X47062526Y49542632D01*
X47188541Y49454150D01*
X47349156Y49408090D01*
X47565081Y49394866D01*
X47679632Y49398327D01*
X47835622Y49423792D01*
X47969957Y49483373D01*
X48104136Y49588021D01*
X48259657Y49748686D01*
X48312173Y49806415D01*
X48406117Y49901766D01*
X48478680Y49954279D01*
X48550614Y49976549D01*
X48642673Y49981173D01*
X48702064Y49978029D01*
X48848810Y49936648D01*
X48947410Y49855131D01*
X48983474Y49743512D01*
X48972082Y49689466D01*
X48914911Y49573445D01*
X48822116Y49436548D01*
X48707778Y49298737D01*
X48585978Y49179973D01*
X48482454Y49094678D01*
X48315217Y48974156D01*
X48153882Y48886772D01*
X47968659Y48814909D01*
X47941887Y48806069D01*
X47658921Y48742764D01*
X47395198Y48746243D01*
X47128717Y48816550D01*
X47019243Y48859686D01*
X46921829Y48902354D01*
X46876745Y48927960D01*
X46867068Y48936804D01*
X46804576Y48981120D01*
X46709649Y49041322D01*
X46647301Y49086243D01*
X46529501Y49195611D01*
X46424103Y49319202D01*
X46409433Y49339600D01*
X46272361Y49595680D01*
X46211287Y49859903D01*
X46224709Y50123937D01*
X46311123Y50379450D01*
X46469026Y50618108D01*
X46696914Y50831579D01*
X46809051Y50905717D01*
X46979836Y51002706D01*
X47178664Y51104580D01*
X47381716Y51198573D01*
X47553344Y51275217D01*
X47824808Y51408355D01*
X48022962Y51524783D01*
X48150341Y51626079D01*
X48209480Y51713822D01*
X48214258Y51730034D01*
X48221531Y51896570D01*
X48155127Y52050248D01*
X48020348Y52178056D01*
X48015628Y52181167D01*
X47920607Y52236639D01*
X47828302Y52268567D01*
X47711358Y52283165D01*
X47542420Y52286650D01*
X47228754Y52286650D01*
X47071188Y52117715D01*
X46982351Y52030512D01*
X46885733Y51967025D01*
X46791284Y51948779D01*
X46712873Y51959770D01*
X46595239Y51999263D01*
X46480883Y52055691D01*
X46394304Y52116530D01*
X46360000Y52169255D01*
X46360023Y52170806D01*
X46390835Y52249590D01*
X46470018Y52360377D01*
X46582855Y52487742D01*
X46714628Y52616259D01*
X46850622Y52730502D01*
X46976119Y52815046D01*
X47028217Y52835417D01*
X47168217Y52862555D01*
X47354265Y52879779D01*
X47565615Y52887065D01*
X47781518Y52884392D01*
G37*
G36*
X40684949Y51771117D02*
G01*
X40782159Y51756708D01*
X41072627Y51668410D01*
X41376258Y51508561D01*
X41500340Y51430677D01*
X41548054Y51545867D01*
X41571039Y51588048D01*
X41655186Y51657738D01*
X41793679Y51697003D01*
X41997480Y51709844D01*
X42106791Y51710281D01*
X42106791Y48808560D01*
X41560466Y48808560D01*
X41532562Y49454491D01*
X41519654Y49721729D01*
X41498630Y50044403D01*
X41473703Y50302298D01*
X41443770Y50504080D01*
X41407726Y50658414D01*
X41364467Y50773966D01*
X41266433Y50904159D01*
X41103626Y51015029D01*
X40898283Y51087853D01*
X40668001Y51114037D01*
X40598551Y51115618D01*
X40434904Y51142048D01*
X40334789Y51207303D01*
X40290050Y51319479D01*
X40292529Y51486671D01*
X40299133Y51535740D01*
X40335268Y51671861D01*
X40401668Y51749253D01*
X40513254Y51778733D01*
X40684949Y51771117D01*
G37*
G36*
X39801314Y48808560D02*
G01*
X39125571Y48808560D01*
X39125571Y51710281D01*
X39801314Y51710281D01*
X39801314Y48808560D01*
G37*
G36*
X36872274Y51758323D02*
G01*
X37076158Y51745335D01*
X37253021Y51705321D01*
X37431392Y51629368D01*
X37639794Y51508561D01*
X37763877Y51430677D01*
X37811591Y51545867D01*
X37834576Y51588048D01*
X37918723Y51657738D01*
X38057215Y51697003D01*
X38261017Y51709844D01*
X38370328Y51710281D01*
X38370328Y48797144D01*
X38083845Y48823769D01*
X38070991Y48825010D01*
X37927975Y48845195D01*
X37818890Y48871668D01*
X37766457Y48899039D01*
X37760155Y48916318D01*
X37747153Y49003790D01*
X37737712Y49140527D01*
X37733540Y49305430D01*
X37728940Y49556166D01*
X37717336Y49836862D01*
X37700088Y50111034D01*
X37678457Y50364088D01*
X37653705Y50581429D01*
X37627096Y50748463D01*
X37599891Y50850595D01*
X37543210Y50948063D01*
X37404266Y51073267D01*
X37221696Y51153326D01*
X37012720Y51181788D01*
X36794564Y51152203D01*
X36762193Y51142498D01*
X36634587Y51080507D01*
X36557790Y50987186D01*
X36529226Y50913425D01*
X36496172Y50767862D01*
X36467339Y50561906D01*
X36442213Y50290789D01*
X36420279Y49949740D01*
X36401022Y49533990D01*
X36373742Y48848309D01*
X35779780Y48848309D01*
X35795161Y49891736D01*
X35796168Y49958528D01*
X35801841Y50274012D01*
X35808478Y50522540D01*
X35816819Y50714691D01*
X35827607Y50861044D01*
X35841584Y50972179D01*
X35859491Y51058674D01*
X35882071Y51131110D01*
X35975338Y51336468D01*
X36121146Y51528641D01*
X36308739Y51659686D01*
X36545789Y51734628D01*
X36839968Y51758493D01*
X36872274Y51758323D01*
G37*
G36*
X34764580Y52559813D02*
G01*
X34843213Y52492702D01*
X34893891Y52363294D01*
X34922820Y52163757D01*
X34924198Y52147622D01*
X34942913Y51969701D01*
X34968438Y51853039D01*
X35010179Y51780721D01*
X35077547Y51735832D01*
X35179947Y51701458D01*
X35268324Y51672309D01*
X35376032Y51607570D01*
X35420921Y51516276D01*
X35413745Y51383818D01*
X35405165Y51342894D01*
X35375423Y51272485D01*
X35314730Y51230010D01*
X35199419Y51194572D01*
X35138592Y51178762D01*
X35027844Y51149466D01*
X34961799Y51131275D01*
X34942719Y51105123D01*
X34928404Y51031901D01*
X34918879Y50903644D01*
X34913547Y50712215D01*
X34911812Y50449478D01*
X34909537Y50167364D01*
X34898332Y49844172D01*
X34875624Y49584838D01*
X34839046Y49380531D01*
X34786234Y49222420D01*
X34714824Y49101674D01*
X34622449Y49009460D01*
X34506745Y48936949D01*
X34466430Y48917471D01*
X34347533Y48876256D01*
X34206102Y48855065D01*
X34013969Y48848861D01*
X33981760Y48848915D01*
X33792674Y48857922D01*
X33668725Y48888982D01*
X33597976Y48951811D01*
X33568492Y49056127D01*
X33568335Y49211648D01*
X33580500Y49424679D01*
X33785575Y49411410D01*
X33857758Y49409433D01*
X33985100Y49418428D01*
X34070378Y49440811D01*
X34114305Y49479048D01*
X34160822Y49571332D01*
X34195321Y49717144D01*
X34218769Y49922871D01*
X34232130Y50194902D01*
X34236369Y50539624D01*
X34236369Y51193536D01*
X34063427Y51193536D01*
X34033783Y51194112D01*
X33888395Y51208819D01*
X33765305Y51237174D01*
X33738774Y51246801D01*
X33673258Y51283535D01*
X33645730Y51343627D01*
X33640125Y51455040D01*
X33640247Y51490869D01*
X33646389Y51568646D01*
X33672602Y51619112D01*
X33733548Y51651867D01*
X33843889Y51676513D01*
X34018289Y51702651D01*
X34137886Y51725705D01*
X34202645Y51758583D01*
X34224305Y51810011D01*
X34231032Y51879808D01*
X34242982Y52005792D01*
X34256993Y52154777D01*
X34260574Y52190165D01*
X34290997Y52354071D01*
X34348576Y52459620D01*
X34448123Y52524333D01*
X34604454Y52565731D01*
X34651786Y52572463D01*
X34764580Y52559813D01*
G37*
G36*
X69828735Y50772145D02*
G01*
X69745690Y50656976D01*
X69696764Y50603531D01*
X69638567Y50582375D01*
X69516698Y50561621D01*
X69332153Y50543415D01*
X69082834Y50527684D01*
X68766639Y50514358D01*
X68381468Y50503364D01*
X67925223Y50494631D01*
X67395803Y50488088D01*
X66791108Y50483663D01*
X66109039Y50481285D01*
X64413164Y50478043D01*
X64264104Y50209733D01*
X64249177Y50182980D01*
X64177031Y50056958D01*
X64120626Y49963627D01*
X64091107Y49921549D01*
X64081012Y49911678D01*
X64029019Y49853331D01*
X63955896Y49766344D01*
X63932338Y49738925D01*
X63734777Y49567392D01*
X63484917Y49425890D01*
X63204611Y49324756D01*
X62915712Y49274326D01*
X62707657Y49270426D01*
X62440891Y49287943D01*
X62179748Y49325718D01*
X62060898Y49356394D01*
X61800980Y49476643D01*
X61558645Y49658886D01*
X61348227Y49891093D01*
X61184062Y50161235D01*
X61168327Y50195101D01*
X61081481Y50440503D01*
X61034497Y50712582D01*
X61027364Y50914043D01*
X61862347Y50914043D01*
X61866677Y50842410D01*
X61925603Y50626661D01*
X62043035Y50423338D01*
X62205590Y50258019D01*
X62212197Y50253012D01*
X62429246Y50127019D01*
X62647514Y50077997D01*
X62875962Y50103887D01*
X62949778Y50123060D01*
X63051021Y50147849D01*
X63102508Y50158292D01*
X63142283Y50179509D01*
X63217557Y50251487D01*
X63305392Y50355446D01*
X63389324Y50471567D01*
X63452884Y50580030D01*
X63517574Y50768750D01*
X63529740Y50994091D01*
X63478476Y51207711D01*
X63372308Y51398646D01*
X63219763Y51555934D01*
X63029366Y51668614D01*
X62809644Y51725722D01*
X62569123Y51716297D01*
X62373075Y51655083D01*
X62166814Y51527057D01*
X62005302Y51352207D01*
X61899995Y51143535D01*
X61862347Y50914043D01*
X61027364Y50914043D01*
X61023098Y51034538D01*
X61035256Y51195889D01*
X61114710Y51507270D01*
X61260560Y51798475D01*
X61464203Y52059495D01*
X61717035Y52280326D01*
X62010454Y52450962D01*
X62335857Y52561394D01*
X62624634Y52601242D01*
X62975358Y52581549D01*
X63311365Y52489676D01*
X63622916Y52329633D01*
X63900272Y52105431D01*
X64133694Y51821079D01*
X64161705Y51778556D01*
X64252009Y51636010D01*
X64324576Y51513535D01*
X64365778Y51433868D01*
X64407664Y51332660D01*
X66742283Y51357017D01*
X67113578Y51360949D01*
X67520217Y51365394D01*
X67898271Y51369673D01*
X68240466Y51373696D01*
X68539530Y51377373D01*
X68788190Y51380615D01*
X68979173Y51383331D01*
X69105207Y51385433D01*
X69159018Y51386830D01*
X69169479Y51388282D01*
X69250152Y51440923D01*
X69335145Y51561220D01*
X69362693Y51610030D01*
X69434924Y51735947D01*
X69532554Y51904669D01*
X69646314Y52100195D01*
X69766934Y52306525D01*
X69821781Y52400498D01*
X70016662Y52742261D01*
X70169563Y53024551D01*
X70279722Y53245855D01*
X70346376Y53404665D01*
X70368763Y53499467D01*
X70358882Y53546469D01*
X70315578Y53650628D01*
X70249514Y53771122D01*
X70199279Y53855043D01*
X70149522Y53944745D01*
X70130266Y53989256D01*
X70120961Y54019958D01*
X70086038Y54106166D01*
X70034085Y54223357D01*
X69994336Y54318581D01*
X69908587Y54652031D01*
X69902899Y54787784D01*
X70733324Y54787784D01*
X70783345Y54562648D01*
X70905066Y54363412D01*
X71096573Y54197823D01*
X71169493Y54153985D01*
X71413299Y54057207D01*
X71652092Y54039557D01*
X71884401Y54100972D01*
X72108753Y54241389D01*
X72192586Y54315851D01*
X72339318Y54500558D01*
X72415830Y54706518D01*
X72428660Y54948178D01*
X72401313Y55130875D01*
X72313915Y55335795D01*
X72163087Y55498975D01*
X71942774Y55628898D01*
X71885592Y55652841D01*
X71631105Y55714109D01*
X71389669Y55701040D01*
X71170627Y55616853D01*
X70983322Y55464765D01*
X70837097Y55247996D01*
X70756918Y55031069D01*
X70733324Y54787784D01*
X69902899Y54787784D01*
X69894073Y54998437D01*
X69950313Y55341611D01*
X70076828Y55665367D01*
X70202132Y55854451D01*
X70375285Y56046960D01*
X70574922Y56223376D01*
X70780308Y56365388D01*
X70970707Y56454688D01*
X71029415Y56470378D01*
X71205352Y56498004D01*
X71421005Y56514313D01*
X71652716Y56519143D01*
X71876830Y56512332D01*
X72069690Y56493720D01*
X72207637Y56463143D01*
X72390489Y56381313D01*
X72656339Y56196646D01*
X72887494Y55953745D01*
X73075697Y55663860D01*
X73212691Y55338242D01*
X73290218Y54988139D01*
X73292945Y54948178D01*
X73297277Y54884707D01*
X73268571Y54610077D01*
X73181187Y54325096D01*
X73044643Y54044738D01*
X72868458Y53783974D01*
X72662151Y53557777D01*
X72435241Y53381120D01*
X72197245Y53268974D01*
X72194257Y53268054D01*
X72077935Y53239989D01*
X71909127Y53208133D01*
X71713475Y53176629D01*
X71516625Y53149615D01*
X71344219Y53131234D01*
X71312390Y53126679D01*
X71264096Y53106535D01*
X71214351Y53061029D01*
X71154175Y52978961D01*
X71074584Y52849129D01*
X70966598Y52660333D01*
X70779210Y52331291D01*
X70590559Y52006304D01*
X70407711Y51697176D01*
X70235386Y51411553D01*
X70078302Y51157077D01*
X69974681Y50994091D01*
X69941178Y50941394D01*
X69828735Y50772145D01*
G37*
G36*
X69269938Y53731235D02*
G01*
X69264930Y53547962D01*
X69248581Y53409030D01*
X69215909Y53285448D01*
X69161933Y53148222D01*
X69008793Y52859657D01*
X68781082Y52568456D01*
X68508467Y52331917D01*
X68199951Y52157639D01*
X67864538Y52053221D01*
X67856045Y52051799D01*
X67759612Y52045368D01*
X67615742Y52044745D01*
X67452219Y52050138D01*
X67244379Y52069870D01*
X67062063Y52113230D01*
X66869478Y52190650D01*
X66612271Y52335748D01*
X66343235Y52562142D01*
X66132686Y52831066D01*
X65983912Y53133064D01*
X65900201Y53458679D01*
X65889736Y53690197D01*
X66739112Y53690197D01*
X66747045Y53578495D01*
X66805251Y53364313D01*
X66924187Y53187163D01*
X67109577Y53039989D01*
X67367145Y52915731D01*
X67564024Y52870366D01*
X67762424Y52894335D01*
X67962099Y52992380D01*
X68169617Y53166555D01*
X68299514Y53327462D01*
X68395588Y53547810D01*
X68416143Y53780167D01*
X68360715Y54016040D01*
X68228837Y54246936D01*
X68221464Y54256549D01*
X68054928Y54410991D01*
X67843493Y54502408D01*
X67583316Y54532503D01*
X67471160Y54526520D01*
X67224136Y54464738D01*
X67019532Y54342345D01*
X66865235Y54167211D01*
X66769133Y53947205D01*
X66739112Y53690197D01*
X65889736Y53690197D01*
X65884843Y53798455D01*
X65941126Y54142936D01*
X66072340Y54482665D01*
X66160993Y54639548D01*
X66356599Y54892003D01*
X66595456Y55091801D01*
X66884433Y55243033D01*
X67230401Y55349790D01*
X67640229Y55416160D01*
X68111537Y55466619D01*
X68659700Y56420610D01*
X68765297Y56604370D01*
X68942549Y56912766D01*
X69123410Y57227383D01*
X69297078Y57529432D01*
X69452751Y57800124D01*
X69579627Y58020670D01*
X69633617Y58114491D01*
X69821875Y58441736D01*
X69974972Y58708597D01*
X70096416Y58921909D01*
X70189710Y59088505D01*
X70258362Y59215221D01*
X70305876Y59308889D01*
X70335758Y59376345D01*
X70351514Y59424422D01*
X70356649Y59459955D01*
X70354668Y59489777D01*
X70349078Y59520724D01*
X70314507Y59635474D01*
X70237628Y59815858D01*
X70123986Y60045595D01*
X69977800Y60316188D01*
X69803292Y60619144D01*
X69717818Y60764624D01*
X69591540Y60982619D01*
X69471365Y61193140D01*
X69374708Y61365847D01*
X69349974Y61410738D01*
X69273321Y61546175D01*
X69218877Y61627226D01*
X69173908Y61666096D01*
X69125680Y61674992D01*
X69061459Y61666122D01*
X69024052Y61661056D01*
X68896750Y61651843D01*
X68728227Y61646032D01*
X68544714Y61644712D01*
X68401846Y61647596D01*
X68223824Y61661261D01*
X68079847Y61689811D01*
X67942329Y61737493D01*
X67645153Y61889441D01*
X67357978Y62116173D01*
X67126227Y62399877D01*
X66949658Y62740797D01*
X66932151Y62787444D01*
X66867839Y63059687D01*
X66851651Y63302088D01*
X67718825Y63302088D01*
X67760604Y63056674D01*
X67838986Y62874845D01*
X67979454Y62704248D01*
X68182115Y62574074D01*
X68253940Y62547163D01*
X68402408Y62512165D01*
X68560156Y62492642D01*
X68596216Y62490741D01*
X68738620Y62492494D01*
X68847122Y62518561D01*
X68958485Y62576703D01*
X68999756Y62604057D01*
X69163916Y62769409D01*
X69273175Y62990450D01*
X69325955Y63264229D01*
X69321793Y63482290D01*
X69255644Y63719875D01*
X69125681Y63914070D01*
X68936016Y64059143D01*
X68690762Y64149363D01*
X68565540Y64167262D01*
X68337596Y64146839D01*
X68132697Y64063181D01*
X67959607Y63926582D01*
X67827090Y63747337D01*
X67743908Y63535741D01*
X67718825Y63302088D01*
X66851651Y63302088D01*
X66847731Y63360793D01*
X66872053Y63659420D01*
X66941035Y63924228D01*
X66987404Y64031077D01*
X67143601Y64291639D01*
X67341144Y64522095D01*
X67560270Y64697758D01*
X67615800Y64732276D01*
X67771511Y64822387D01*
X67904902Y64882763D01*
X68048456Y64926323D01*
X68234652Y64965986D01*
X68353091Y64984384D01*
X68704702Y64988302D01*
X69044141Y64919307D01*
X69361807Y64782335D01*
X69648102Y64582322D01*
X69893426Y64324204D01*
X70088179Y64012917D01*
X70134423Y63915406D01*
X70192948Y63761202D01*
X70225435Y63606594D01*
X70241981Y63412143D01*
X70243609Y63264229D01*
X70244157Y63214464D01*
X70218897Y62991007D01*
X70157015Y62763380D01*
X70052410Y62502300D01*
X70019354Y62428015D01*
X69980701Y62331730D01*
X69961512Y62249194D01*
X69964960Y62166525D01*
X69994222Y62069840D01*
X70052473Y61945256D01*
X70142887Y61778891D01*
X70268640Y61556861D01*
X70352841Y61408966D01*
X70471591Y61201725D01*
X70578913Y61015908D01*
X70665591Y60867452D01*
X70722408Y60772293D01*
X70744439Y60735824D01*
X70836389Y60575329D01*
X70942359Y60380907D01*
X71051647Y60173144D01*
X71153553Y59972625D01*
X71237378Y59799935D01*
X71292420Y59675662D01*
X71299230Y59658485D01*
X71329728Y59569905D01*
X71333811Y59500165D01*
X71308058Y59419473D01*
X71249046Y59298041D01*
X71219667Y59240904D01*
X71130891Y59073248D01*
X71011617Y58852406D01*
X70867844Y58589219D01*
X70705573Y58294529D01*
X70530803Y57979175D01*
X70349534Y57654000D01*
X70167766Y57329846D01*
X69991498Y57017553D01*
X69826730Y56727963D01*
X69729406Y56556857D01*
X69640469Y56398833D01*
X69571602Y56274708D01*
X69532595Y56201987D01*
X69491365Y56129988D01*
X69453799Y56082738D01*
X69442515Y56068007D01*
X69397822Y55993506D01*
X69327627Y55867969D01*
X69238912Y55703988D01*
X69138656Y55514160D01*
X68852085Y54965457D01*
X68955673Y54778792D01*
X68979163Y54736370D01*
X69092777Y54525505D01*
X69172371Y54360421D01*
X69223918Y54222086D01*
X69253393Y54091468D01*
X69266768Y53949537D01*
X69269961Y53780167D01*
X69270016Y53777261D01*
X69269938Y53731235D01*
G37*
G36*
X39654919Y52862487D02*
G01*
X39788089Y52754166D01*
X39846728Y52648516D01*
X39872151Y52499845D01*
X39850827Y52351617D01*
X39786843Y52227561D01*
X39684285Y52151405D01*
X39641341Y52137247D01*
X39454789Y52113500D01*
X39290016Y52150755D01*
X39161933Y52243197D01*
X39085448Y52385009D01*
X39063494Y52469746D01*
X39050191Y52573276D01*
X39070366Y52654687D01*
X39127898Y52747039D01*
X39193914Y52818587D01*
X39336717Y52894469D01*
X39497424Y52909178D01*
X39654919Y52862487D01*
G37*
G36*
X65759385Y56317066D02*
G01*
X65680956Y56150606D01*
X65584750Y55954387D01*
X65477278Y55741065D01*
X65365052Y55523296D01*
X65254585Y55313738D01*
X65152387Y55125048D01*
X65064970Y54969882D01*
X64998847Y54860897D01*
X64960528Y54810751D01*
X64945921Y54793205D01*
X64900727Y54719658D01*
X64843652Y54613222D01*
X64816183Y54560424D01*
X64744965Y54432513D01*
X64684668Y54334975D01*
X64635585Y54261624D01*
X64556021Y54140202D01*
X64469354Y54006090D01*
X64410349Y53916716D01*
X64343392Y53834204D01*
X64270173Y53781662D01*
X64172394Y53750982D01*
X64031754Y53734057D01*
X63829953Y53722776D01*
X63757364Y53720220D01*
X63572367Y53717251D01*
X63342252Y53716652D01*
X63089405Y53718427D01*
X62836212Y53722581D01*
X62748017Y53724406D01*
X62454293Y53729493D01*
X62144475Y53733633D01*
X61850417Y53736440D01*
X61603975Y53737528D01*
X61047480Y53737788D01*
X60749358Y54255809D01*
X60714929Y54315570D01*
X60597644Y54518283D01*
X60486288Y54709566D01*
X60392055Y54870234D01*
X60326139Y54981101D01*
X60283193Y55053351D01*
X60187059Y55219211D01*
X60072134Y55421030D01*
X59948172Y55641338D01*
X59824931Y55862667D01*
X59712165Y56067549D01*
X59619631Y56238516D01*
X59557085Y56358099D01*
X59530777Y56411610D01*
X59495438Y56502316D01*
X59495369Y56517324D01*
X60506194Y56517324D01*
X60515689Y56459863D01*
X60546000Y56380871D01*
X60601615Y56268377D01*
X60687021Y56110415D01*
X60806706Y55895015D01*
X60946745Y55646630D01*
X61148356Y55301606D01*
X61319090Y55027098D01*
X61459820Y54821787D01*
X61571417Y54684355D01*
X61654755Y54613482D01*
X61715525Y54595859D01*
X61844886Y54577831D01*
X62025313Y54562446D01*
X62243763Y54549920D01*
X62487194Y54540467D01*
X62742564Y54534301D01*
X62996832Y54531636D01*
X63236955Y54532686D01*
X63449892Y54537666D01*
X63622599Y54546790D01*
X63742036Y54560272D01*
X63795159Y54578326D01*
X63820931Y54616170D01*
X63879848Y54711319D01*
X63949492Y54830004D01*
X63998620Y54913977D01*
X64060049Y55013404D01*
X64098452Y55068501D01*
X64106918Y55078735D01*
X64137246Y55121959D01*
X64182385Y55194547D01*
X64247022Y55304564D01*
X64335844Y55460077D01*
X64453538Y55669151D01*
X64604792Y55939854D01*
X64708378Y56128992D01*
X64793681Y56295826D01*
X64845681Y56416187D01*
X64869148Y56501324D01*
X64868855Y56562485D01*
X64856913Y56603859D01*
X64827407Y56675078D01*
X64778007Y56776028D01*
X64705213Y56913115D01*
X64605523Y57092746D01*
X64475437Y57321327D01*
X64311453Y57605266D01*
X64110069Y57950970D01*
X63819796Y58447840D01*
X62910633Y58459822D01*
X62794717Y58461141D01*
X62524849Y58462629D01*
X62275906Y58461909D01*
X62062530Y58459136D01*
X61899358Y58454467D01*
X61801031Y58448055D01*
X61778811Y58445394D01*
X61689811Y58431056D01*
X61623930Y58404810D01*
X61564507Y58353001D01*
X61494882Y58261974D01*
X61398392Y58118075D01*
X61384890Y58097511D01*
X61280201Y57932526D01*
X61158136Y57732691D01*
X61027148Y57512647D01*
X60895692Y57287032D01*
X60772221Y57070485D01*
X60665188Y56877645D01*
X60583047Y56723151D01*
X60534251Y56621642D01*
X60531700Y56615525D01*
X60513027Y56565222D01*
X60506194Y56517324D01*
X59495369Y56517324D01*
X59495141Y56567160D01*
X59526574Y56636346D01*
X59529140Y56640873D01*
X59570452Y56713954D01*
X59642909Y56842300D01*
X59739473Y57013440D01*
X59853108Y57214905D01*
X59976779Y57434225D01*
X59997370Y57470703D01*
X60117911Y57682517D01*
X60226206Y57869996D01*
X60315632Y58021868D01*
X60379564Y58126862D01*
X60411378Y58173706D01*
X60424932Y58190746D01*
X60473658Y58272218D01*
X60528109Y58382391D01*
X60551385Y58431241D01*
X60598757Y58514351D01*
X60630109Y58547214D01*
X60640438Y58553312D01*
X60680283Y58609769D01*
X60729483Y58706212D01*
X60750224Y58749587D01*
X60798562Y58832353D01*
X60832216Y58865211D01*
X60854250Y58878856D01*
X60887326Y58941067D01*
X60892983Y58955735D01*
X60943722Y59042049D01*
X61019190Y59139360D01*
X61126979Y59261796D01*
X61822597Y59306714D01*
X61873935Y59309823D01*
X62106582Y59320148D01*
X62373728Y59327216D01*
X62662710Y59331156D01*
X62960864Y59332099D01*
X63255527Y59330173D01*
X63534036Y59325508D01*
X63783727Y59318233D01*
X63991937Y59308479D01*
X64146002Y59296375D01*
X64233258Y59282050D01*
X64244365Y59277450D01*
X64309752Y59222713D01*
X64401208Y59110627D01*
X64520224Y58938856D01*
X64668291Y58705061D01*
X64846901Y58406906D01*
X65057546Y58042054D01*
X65301717Y57608168D01*
X65355846Y57510150D01*
X65478021Y57282688D01*
X65591403Y57063575D01*
X65690009Y56865029D01*
X65767851Y56699267D01*
X65818946Y56578504D01*
X65837308Y56514959D01*
X65836866Y56510077D01*
X65833904Y56501324D01*
X65813526Y56441108D01*
X65759385Y56317066D01*
G37*
G36*
X43383170Y55645680D02*
G01*
X43204041Y55325096D01*
X43129807Y55232710D01*
X42927312Y55052424D01*
X42683379Y54905583D01*
X42423504Y54809044D01*
X42343894Y54794571D01*
X42148208Y54784902D01*
X41925644Y54797626D01*
X41708039Y54830215D01*
X41527234Y54880144D01*
X41497539Y54891989D01*
X41295342Y54996472D01*
X41092692Y55135791D01*
X40915083Y55290588D01*
X40788008Y55441502D01*
X40767537Y55474241D01*
X40673153Y55662822D01*
X40593099Y55879773D01*
X40537581Y56093780D01*
X40516807Y56273529D01*
X40517838Y56307630D01*
X41152801Y56307630D01*
X41174256Y56140656D01*
X41251714Y55926367D01*
X41372352Y55723392D01*
X41522138Y55554458D01*
X41687043Y55442289D01*
X41912908Y55376065D01*
X42146699Y55377374D01*
X42367344Y55443400D01*
X42563431Y55566869D01*
X42723547Y55740507D01*
X42836279Y55957041D01*
X42890215Y56209194D01*
X42884779Y56464185D01*
X42816973Y56715323D01*
X42686796Y56921693D01*
X42497488Y57078362D01*
X42252289Y57180400D01*
X42171996Y57199524D01*
X42008162Y57215854D01*
X41843778Y57192195D01*
X41646632Y57125635D01*
X41526886Y57055707D01*
X41382509Y56910152D01*
X41263465Y56722757D01*
X41182610Y56514817D01*
X41152801Y56307630D01*
X40517838Y56307630D01*
X40519259Y56354631D01*
X40571342Y56666867D01*
X40684163Y56967565D01*
X40848479Y57236463D01*
X41055045Y57453299D01*
X41200990Y57558362D01*
X41484940Y57697007D01*
X41787482Y57773616D01*
X42096839Y57790282D01*
X42401233Y57749103D01*
X42688888Y57652174D01*
X42948027Y57501590D01*
X43166872Y57299447D01*
X43333648Y57047841D01*
X43341237Y57032373D01*
X43466779Y56687212D01*
X43515185Y56335321D01*
X43505065Y56209194D01*
X43487100Y55985283D01*
X43383170Y55645680D01*
G37*
G36*
X39957137Y55724445D02*
G01*
X39839900Y55437292D01*
X39704596Y55241788D01*
X39485321Y55039801D01*
X39220854Y54887708D01*
X38926823Y54796477D01*
X38696360Y54777636D01*
X38394205Y54822155D01*
X38090503Y54942447D01*
X38046010Y54965686D01*
X37911854Y55034842D01*
X37831182Y55072106D01*
X37790396Y55081252D01*
X37775896Y55066054D01*
X37774084Y55030290D01*
X37756620Y54969587D01*
X37675593Y54904881D01*
X37539917Y54871722D01*
X37362180Y54874858D01*
X37138090Y54901195D01*
X37138090Y56192491D01*
X37780068Y56192491D01*
X37824369Y55930983D01*
X37934854Y55710164D01*
X38108705Y55534690D01*
X38343104Y55409216D01*
X38354059Y55405233D01*
X38569140Y55367623D01*
X38792858Y55393406D01*
X38992926Y55479108D01*
X38995919Y55481044D01*
X39196801Y55645900D01*
X39326255Y55837555D01*
X39388252Y56064645D01*
X39386760Y56335803D01*
X39382149Y56374278D01*
X39317130Y56651963D01*
X39205128Y56879932D01*
X39051696Y57051729D01*
X38862386Y57160898D01*
X38642748Y57200982D01*
X38554385Y57197960D01*
X38315098Y57141371D01*
X38111067Y57019335D01*
X37949579Y56839201D01*
X37837919Y56608320D01*
X37783372Y56334040D01*
X37780068Y56192491D01*
X37138090Y56192491D01*
X37138090Y58865211D01*
X37287151Y58865648D01*
X37435847Y58873144D01*
X37584397Y58890582D01*
X37732582Y58915078D01*
X37743396Y58159596D01*
X37754209Y57404114D01*
X38030089Y57584623D01*
X38073071Y57612539D01*
X38209712Y57694777D01*
X38320613Y57743203D01*
X38436122Y57768556D01*
X38586583Y57781575D01*
X38618500Y57783127D01*
X38937444Y57759605D01*
X39233235Y57661775D01*
X39513394Y57487250D01*
X39562020Y57446819D01*
X39746825Y57234072D01*
X39887203Y56971798D01*
X39980789Y56674849D01*
X40025216Y56358074D01*
X40018746Y56064645D01*
X40018121Y56036323D01*
X39957137Y55724445D01*
G37*
G36*
X34474867Y56864107D02*
G01*
X34475073Y56627907D01*
X34476465Y56393302D01*
X34480060Y56217097D01*
X34486873Y56087541D01*
X34497917Y55992884D01*
X34514206Y55921376D01*
X34536752Y55861266D01*
X34566569Y55800805D01*
X34584417Y55769129D01*
X34704642Y55617569D01*
X34859639Y55489284D01*
X35026444Y55400451D01*
X35182092Y55367245D01*
X35317621Y55380616D01*
X35454537Y55414506D01*
X35479048Y55424056D01*
X35544714Y55460853D01*
X35597432Y55515713D01*
X35639233Y55597410D01*
X35672147Y55714720D01*
X35698203Y55876418D01*
X35719432Y56091280D01*
X35737864Y56368080D01*
X35755528Y56715594D01*
X35763758Y56884546D01*
X35777343Y57134015D01*
X35790820Y57349390D01*
X35803398Y57519337D01*
X35814286Y57632520D01*
X35822691Y57677606D01*
X35824826Y57679257D01*
X35881607Y57694568D01*
X35993313Y57711010D01*
X36138202Y57725298D01*
X36430176Y57748232D01*
X36412463Y56686925D01*
X36408768Y56498002D01*
X36400327Y56195261D01*
X36389759Y55933589D01*
X36377562Y55722593D01*
X36364238Y55571882D01*
X36350284Y55491061D01*
X36339937Y55462208D01*
X36262146Y55304327D01*
X36154530Y55141689D01*
X36036280Y55000711D01*
X35926588Y54907814D01*
X35859635Y54876919D01*
X35720712Y54835773D01*
X35567981Y54809047D01*
X35459050Y54796927D01*
X35351930Y54784310D01*
X35298417Y54777062D01*
X35268434Y54779694D01*
X35173861Y54804486D01*
X35039824Y54848172D01*
X34887072Y54903458D01*
X34736357Y54963048D01*
X34608431Y55019645D01*
X34554350Y55044254D01*
X34451258Y55077515D01*
X34407617Y55064822D01*
X34385946Y55012302D01*
X34319417Y54929863D01*
X34211182Y54882069D01*
X34042962Y54858583D01*
X33799123Y54840945D01*
X33799123Y57752222D01*
X34474867Y57752222D01*
X34474867Y56864107D01*
G37*
G36*
X32006302Y57781760D02*
G01*
X32288638Y57721288D01*
X32443791Y57659047D01*
X32626071Y57555732D01*
X32798939Y57431414D01*
X32940560Y57301959D01*
X33029099Y57183236D01*
X33032386Y57176789D01*
X33090354Y57073194D01*
X33141233Y56996979D01*
X33192602Y56901274D01*
X33239251Y56731967D01*
X33268768Y56522762D01*
X33280251Y56294419D01*
X33272799Y56067698D01*
X33245510Y55863362D01*
X33197481Y55702171D01*
X33154907Y55613290D01*
X32977040Y55338429D01*
X32754875Y55108050D01*
X32501252Y54933756D01*
X32229014Y54827148D01*
X31979251Y54785410D01*
X31633510Y54794240D01*
X31299117Y54880036D01*
X30984456Y55041355D01*
X30851693Y55131431D01*
X30724509Y55229297D01*
X30640000Y55314576D01*
X30582414Y55401373D01*
X30571012Y55423437D01*
X30544024Y55510424D01*
X30573712Y55576320D01*
X30668842Y55645928D01*
X30713715Y55671134D01*
X30868965Y55718794D01*
X31024896Y55696891D01*
X31197863Y55604133D01*
X31249440Y55570248D01*
X31447217Y55464533D01*
X31641956Y55393302D01*
X31806703Y55367048D01*
X31909346Y55374372D01*
X32131868Y55443259D01*
X32328568Y55576053D01*
X32486067Y55762114D01*
X32590988Y55990802D01*
X32640441Y56250258D01*
X32627223Y56514340D01*
X32547958Y56749273D01*
X32407134Y56946521D01*
X32209237Y57097546D01*
X31958754Y57193811D01*
X31846582Y57216139D01*
X31641081Y57222046D01*
X31468054Y57167798D01*
X31310197Y57049548D01*
X31157217Y56934607D01*
X30996548Y56879932D01*
X30847133Y56894169D01*
X30720525Y56978707D01*
X30719006Y56980350D01*
X30648042Y57083402D01*
X30644056Y57171815D01*
X30645345Y57175657D01*
X30684932Y57252151D01*
X30751222Y57350500D01*
X30827010Y57448383D01*
X30895090Y57523481D01*
X30938257Y57553474D01*
X30949286Y57556379D01*
X31013407Y57589801D01*
X31105973Y57648593D01*
X31228871Y57713223D01*
X31457067Y57776538D01*
X31722661Y57799780D01*
X32006302Y57781760D01*
G37*
G36*
X48108982Y54850500D02*
G01*
X48108982Y56349035D01*
X47701549Y56375669D01*
X47395921Y56407422D01*
X47056438Y56473302D01*
X46762824Y56565533D01*
X46530843Y56680015D01*
X46351580Y56825855D01*
X46184510Y57046932D01*
X46073506Y57304781D01*
X46025093Y57583431D01*
X46031822Y57675567D01*
X46689237Y57675567D01*
X46692097Y57548986D01*
X46755752Y57376839D01*
X46878352Y57225796D01*
X47048309Y57113980D01*
X47059442Y57109030D01*
X47159165Y57074523D01*
X47279827Y57052731D01*
X47440886Y57041231D01*
X47661799Y57037602D01*
X48108982Y57036729D01*
X48108982Y58229217D01*
X47689339Y58229217D01*
X47546085Y58228016D01*
X47307030Y58216833D01*
X47127529Y58190964D01*
X46994578Y58146842D01*
X46895174Y58080896D01*
X46816315Y57989557D01*
X46794858Y57955965D01*
X46727226Y57813414D01*
X46689237Y57675567D01*
X46031822Y57675567D01*
X46045798Y57866912D01*
X46057916Y57917826D01*
X46129325Y58110742D01*
X46232369Y58297992D01*
X46352062Y58455338D01*
X46473420Y58558544D01*
X46480010Y58562401D01*
X46577783Y58625826D01*
X46646738Y58680616D01*
X46675228Y58705826D01*
X46765394Y58758598D01*
X46892430Y58800829D01*
X47064845Y58833911D01*
X47291150Y58859237D01*
X47579854Y58878199D01*
X47939466Y58892191D01*
X48784726Y58917621D01*
X48784726Y54850500D01*
X48108982Y54850500D01*
G37*
G36*
X44114972Y57785100D02*
G01*
X44308092Y57737618D01*
X44512516Y57654751D01*
X44696652Y57548052D01*
X44736581Y57521272D01*
X44828595Y57480036D01*
X44888789Y57501489D01*
X44933281Y57588379D01*
X44956387Y57634809D01*
X45037214Y57701729D01*
X45173665Y57739435D01*
X45376197Y57751784D01*
X45485508Y57752222D01*
X45485508Y54850500D01*
X44939193Y54850500D01*
X44911307Y55456682D01*
X44910431Y55475563D01*
X44887307Y55875059D01*
X44857845Y56202716D01*
X44820410Y56465752D01*
X44773369Y56671383D01*
X44715087Y56826824D01*
X44643930Y56939293D01*
X44558266Y57016005D01*
X44539244Y57026534D01*
X44435074Y57064744D01*
X44285572Y57103849D01*
X44116358Y57136844D01*
X44053241Y57147360D01*
X43903142Y57174932D01*
X43790374Y57199307D01*
X43735581Y57216185D01*
X43722472Y57235891D01*
X43704020Y57318168D01*
X43696776Y57436571D01*
X43707731Y57570023D01*
X43761639Y57698140D01*
X43866674Y57769717D01*
X44029595Y57791971D01*
X44114972Y57785100D01*
G37*
G36*
X29545494Y58500984D02*
G01*
X29621480Y58433330D01*
X29638177Y58384620D01*
X29662685Y58272055D01*
X29683695Y58133549D01*
X29698389Y58018860D01*
X29719842Y57899840D01*
X29747804Y57831027D01*
X29790673Y57794994D01*
X29856851Y57774315D01*
X29916996Y57759803D01*
X30055821Y57717059D01*
X30136059Y57667064D01*
X30172994Y57596557D01*
X30181909Y57492278D01*
X30181872Y57476380D01*
X30173033Y57331975D01*
X30137659Y57243805D01*
X30059864Y57190966D01*
X29923766Y57152554D01*
X29712284Y57105227D01*
X29687638Y56603920D01*
X29666900Y56230425D01*
X29643787Y55901215D01*
X29619060Y55624541D01*
X29593408Y55407141D01*
X29567517Y55255754D01*
X29542075Y55177120D01*
X29524943Y55152164D01*
X29393861Y55032625D01*
X29211229Y54943048D01*
X28999140Y54894914D01*
X28889248Y54884657D01*
X28661540Y54879284D01*
X28497818Y54906062D01*
X28390392Y54968583D01*
X28331575Y55070439D01*
X28313677Y55215223D01*
X28313741Y55231591D01*
X28323386Y55322703D01*
X28365444Y55370793D01*
X28462738Y55404905D01*
X28477568Y55408893D01*
X28605941Y55435512D01*
X28713615Y55446523D01*
X28741820Y55447780D01*
X28852129Y55483871D01*
X28937535Y55573353D01*
X28999541Y55721061D01*
X29039651Y55931832D01*
X29059366Y56210504D01*
X29060190Y56561913D01*
X29049045Y57096353D01*
X28810547Y57129966D01*
X28627708Y57160050D01*
X28504468Y57196155D01*
X28433470Y57247468D01*
X28400957Y57324079D01*
X28393176Y57436074D01*
X28394544Y57497197D01*
X28413569Y57605054D01*
X28466934Y57674409D01*
X28569671Y57719132D01*
X28736814Y57753091D01*
X28868825Y57781429D01*
X28988304Y57836794D01*
X29050932Y57921913D01*
X29069357Y58048004D01*
X29077419Y58230744D01*
X29106496Y58370682D01*
X29161852Y58458525D01*
X29248757Y58507782D01*
X29279357Y58516721D01*
X29422887Y58530492D01*
X29545494Y58500984D01*
G37*
G36*
X55415953Y57591144D02*
G01*
X55367388Y57459642D01*
X55317860Y57347457D01*
X55280723Y57286358D01*
X55269874Y57274526D01*
X55211770Y57197923D01*
X55144547Y57096166D01*
X55073013Y57006197D01*
X54926599Y56874995D01*
X54742895Y56746045D01*
X54543992Y56634424D01*
X54351979Y56555209D01*
X54075351Y56495138D01*
X53741608Y56485793D01*
X53407326Y56536292D01*
X53089385Y56642381D01*
X52804663Y56799806D01*
X52570039Y57004313D01*
X52509674Y57071120D01*
X52428859Y57159659D01*
X52379835Y57212186D01*
X52299696Y57324559D01*
X52217002Y57502810D01*
X52148291Y57713830D01*
X52101420Y57933065D01*
X52084398Y58134177D01*
X52966125Y58134177D01*
X52971137Y58004704D01*
X53003130Y57890958D01*
X53070988Y57752222D01*
X53155719Y57614905D01*
X53256107Y57511551D01*
X53396115Y57424287D01*
X53614270Y57339995D01*
X53863948Y57313578D01*
X54102737Y57359375D01*
X54318905Y57474909D01*
X54500719Y57657699D01*
X54557135Y57743909D01*
X54641094Y57960762D01*
X54658030Y58182590D01*
X54614694Y58397869D01*
X54517839Y58595075D01*
X54374216Y58762684D01*
X54190580Y58889170D01*
X53973680Y58963010D01*
X53730270Y58972679D01*
X53539532Y58936633D01*
X53311479Y58835031D01*
X53138046Y58677861D01*
X53023120Y58469013D01*
X52970587Y58212378D01*
X52966125Y58134177D01*
X52084398Y58134177D01*
X52084247Y58135961D01*
X52100246Y58327412D01*
X52176894Y58625932D01*
X52307421Y58922122D01*
X52481352Y59193734D01*
X52688209Y59418522D01*
X52895272Y59580166D01*
X53149417Y59718347D01*
X53432028Y59805417D01*
X53764884Y59850106D01*
X54162079Y59878826D01*
X54437928Y60375696D01*
X54552100Y60579671D01*
X54710340Y60857915D01*
X54874004Y61141417D01*
X55036757Y61419519D01*
X55192266Y61681570D01*
X55334197Y61916913D01*
X55456217Y62114894D01*
X55492602Y62171865D01*
X61873606Y62171865D01*
X61874412Y61997360D01*
X61935954Y61769626D01*
X62066352Y61579022D01*
X62262506Y61431448D01*
X62299878Y61411977D01*
X62547444Y61324909D01*
X62785309Y61307086D01*
X63004798Y61350861D01*
X63197238Y61448583D01*
X63353956Y61592606D01*
X63466278Y61775280D01*
X63525530Y61988957D01*
X63523040Y62225988D01*
X63450133Y62478726D01*
X63376787Y62614247D01*
X63229322Y62767936D01*
X63031414Y62865293D01*
X62776629Y62910441D01*
X62684637Y62915684D01*
X62551229Y62911647D01*
X62438252Y62883560D01*
X62307853Y62824482D01*
X62214535Y62771226D01*
X62038406Y62617025D01*
X61926462Y62419792D01*
X61873606Y62171865D01*
X55492602Y62171865D01*
X55551993Y62264860D01*
X55615190Y62356154D01*
X55619098Y62361097D01*
X55650501Y62391696D01*
X55694968Y62418134D01*
X55758033Y62440714D01*
X55845234Y62459739D01*
X55962107Y62475510D01*
X56114187Y62488331D01*
X56307011Y62498504D01*
X56546116Y62506331D01*
X56837037Y62512116D01*
X57185310Y62516160D01*
X57596473Y62518766D01*
X58076060Y62520236D01*
X58629609Y62520874D01*
X61021440Y62522175D01*
X61068593Y62665049D01*
X61114953Y62780223D01*
X61256615Y63018419D01*
X61449199Y63250543D01*
X61675790Y63457596D01*
X61919470Y63620581D01*
X62083979Y63689516D01*
X62341024Y63747398D01*
X62626588Y63767951D01*
X62915712Y63747984D01*
X63012734Y63730244D01*
X63169010Y63692560D01*
X63332074Y63645616D01*
X63480834Y63596069D01*
X63594200Y63550580D01*
X63651079Y63515808D01*
X63676453Y63493767D01*
X63753090Y63436783D01*
X63858905Y63362912D01*
X63917019Y63320850D01*
X64015460Y63228461D01*
X64100152Y63108760D01*
X64189961Y62937504D01*
X64267330Y62755545D01*
X64363481Y62388562D01*
X64381310Y62023529D01*
X64375521Y61988957D01*
X64321431Y61665901D01*
X64184459Y61321131D01*
X63971009Y60994673D01*
X63923205Y60936400D01*
X63797813Y60806079D01*
X63658740Y60702716D01*
X63474715Y60601540D01*
X63187776Y60477876D01*
X62879751Y60399447D01*
X62586890Y60390718D01*
X62297101Y60451527D01*
X61998293Y60581711D01*
X61787354Y60711275D01*
X61536157Y60911537D01*
X61320243Y61135973D01*
X61153468Y61369741D01*
X61049687Y61597996D01*
X61022248Y61687433D01*
X58590263Y61686481D01*
X56158278Y61685530D01*
X55959530Y61320746D01*
X55911648Y61233545D01*
X55806473Y61045696D01*
X55705735Y60869982D01*
X55625953Y60735391D01*
X55622038Y60728970D01*
X55549604Y60607155D01*
X55450936Y60437562D01*
X55337097Y60239590D01*
X55219146Y60032641D01*
X55108145Y59836114D01*
X55015155Y59669412D01*
X54951237Y59551935D01*
X54940859Y59530673D01*
X54930338Y59472796D01*
X54959515Y59408508D01*
X55037171Y59313438D01*
X55073780Y59270760D01*
X55280643Y58965699D01*
X55420879Y58633441D01*
X55491902Y58285752D01*
X55491673Y58182590D01*
X55491122Y57934398D01*
X55415953Y57591144D01*
G37*
G36*
X69279551Y59024679D02*
G01*
X69251950Y58904161D01*
X69204114Y58758676D01*
X69096916Y58517493D01*
X68894286Y58212119D01*
X68858270Y58167631D01*
X68765017Y58056955D01*
X68694579Y57979889D01*
X68659996Y57950970D01*
X68617681Y57932946D01*
X68526920Y57883797D01*
X68408243Y57814437D01*
X68291020Y57749436D01*
X68163557Y57690423D01*
X68072710Y57661394D01*
X67977511Y57649093D01*
X67641846Y57637240D01*
X67311774Y57670524D01*
X67004292Y57745187D01*
X66736397Y57857471D01*
X66525084Y58003617D01*
X66483937Y58040424D01*
X66394151Y58115906D01*
X66334349Y58159559D01*
X66331336Y58161522D01*
X66284520Y58215281D01*
X66216211Y58317320D01*
X66140083Y58447379D01*
X66054916Y58618297D01*
X65946741Y58935136D01*
X65907595Y59243398D01*
X66760274Y59243398D01*
X66811116Y59049818D01*
X66908625Y58890532D01*
X67077097Y58703434D01*
X67272986Y58554160D01*
X67457050Y58481361D01*
X67664451Y58472749D01*
X67871968Y58530258D01*
X68067952Y58648688D01*
X68240754Y58822842D01*
X68378726Y59047523D01*
X68405287Y59109804D01*
X68447489Y59306145D01*
X68418595Y59500008D01*
X68317135Y59707117D01*
X68163872Y59904792D01*
X67974496Y60048618D01*
X67754809Y60121618D01*
X67497862Y60127357D01*
X67321615Y60085926D01*
X67130823Y59981548D01*
X66970227Y59830882D01*
X66848894Y59648153D01*
X66775888Y59447584D01*
X66760274Y59243398D01*
X65907595Y59243398D01*
X65906146Y59254808D01*
X65933390Y59586638D01*
X66028733Y59939956D01*
X66192437Y60324089D01*
X66213189Y60369568D01*
X66257072Y60494259D01*
X66274554Y60591654D01*
X66265787Y60635158D01*
X66234680Y60714554D01*
X66178770Y60831411D01*
X66095671Y60990063D01*
X65982994Y61194844D01*
X65838350Y61450087D01*
X65659352Y61760126D01*
X65443611Y62129294D01*
X65188739Y62561924D01*
X65142810Y62640009D01*
X65039310Y62817234D01*
X64910256Y63039301D01*
X64764412Y63291093D01*
X64610541Y63557494D01*
X64457407Y63823387D01*
X63949202Y64707229D01*
X61465918Y64708403D01*
X61406188Y64559342D01*
X61396113Y64534666D01*
X61347483Y64425488D01*
X61308068Y64350657D01*
X61282890Y64309987D01*
X61224188Y64212078D01*
X61153657Y64092284D01*
X61128375Y64051680D01*
X60979947Y63866376D01*
X60785375Y63680406D01*
X60568174Y63514397D01*
X60351862Y63388977D01*
X60165774Y63316502D01*
X59933206Y63255877D01*
X59706574Y63223491D01*
X59517120Y63225463D01*
X59515233Y63225720D01*
X59419997Y63247815D01*
X59287773Y63289101D01*
X59141181Y63341144D01*
X59002839Y63395510D01*
X58895365Y63443762D01*
X58841377Y63477466D01*
X58818299Y63497268D01*
X58743614Y63552527D01*
X58639554Y63625038D01*
X58578821Y63669875D01*
X58447172Y63786027D01*
X58343533Y63900661D01*
X58306675Y63948993D01*
X58241020Y64031096D01*
X58203423Y64072409D01*
X58197980Y64077335D01*
X58154706Y64146926D01*
X58102734Y64265952D01*
X58051537Y64410603D01*
X58010587Y64557069D01*
X57987831Y64690633D01*
X57973671Y64881481D01*
X57973396Y65064050D01*
X58849954Y65064050D01*
X58858162Y64840630D01*
X58924913Y64624411D01*
X59045927Y64429348D01*
X59216922Y64269397D01*
X59433615Y64158516D01*
X59601217Y64119636D01*
X59829034Y64130219D01*
X60066922Y64215642D01*
X60196044Y64289050D01*
X60353009Y64426540D01*
X60449310Y64598042D01*
X60496427Y64819705D01*
X60499752Y65020964D01*
X60449884Y65269050D01*
X60342579Y65480252D01*
X60183025Y65640975D01*
X60099729Y65695754D01*
X60007187Y65736198D01*
X59896699Y65754653D01*
X59737590Y65759264D01*
X59453527Y65728616D01*
X59216621Y65635161D01*
X59028453Y65479138D01*
X59026298Y65476662D01*
X58904572Y65280712D01*
X58849954Y65064050D01*
X57973396Y65064050D01*
X57973364Y65085349D01*
X57985656Y65283805D01*
X58009298Y65458418D01*
X58043037Y65590758D01*
X58085623Y65662394D01*
X58088234Y65664745D01*
X58127366Y65713832D01*
X58195420Y65808479D01*
X58279409Y65930704D01*
X58294269Y65952590D01*
X58376349Y66067571D01*
X58440948Y66148602D01*
X58475174Y66179310D01*
X58513158Y66197977D01*
X58597064Y66253515D01*
X58705988Y66333003D01*
X58769760Y66378949D01*
X59075796Y66541815D01*
X59406334Y66631074D01*
X59751758Y66643867D01*
X59764353Y66642877D01*
X60142524Y66574099D01*
X60487561Y66434725D01*
X60793281Y66228886D01*
X61053500Y65960716D01*
X61262035Y65634349D01*
X61306758Y65546680D01*
X62826728Y65534975D01*
X63059404Y65533047D01*
X63418919Y65529248D01*
X63710267Y65524741D01*
X63940725Y65519211D01*
X64117568Y65512342D01*
X64248074Y65503817D01*
X64339518Y65493321D01*
X64399177Y65480537D01*
X64434327Y65465150D01*
X64496522Y65404965D01*
X64580586Y65297252D01*
X64666260Y65167028D01*
X64742137Y65042051D01*
X64755150Y65020964D01*
X64841709Y64880694D01*
X64925155Y64748153D01*
X64963797Y64686332D01*
X65059473Y64525016D01*
X65145619Y64370531D01*
X65191649Y64287235D01*
X65247292Y64195554D01*
X65280813Y64151909D01*
X65301986Y64126317D01*
X65352439Y64045660D01*
X65414651Y63933286D01*
X65446086Y63874977D01*
X65528888Y63727315D01*
X65629787Y63552411D01*
X65733581Y63376791D01*
X65733764Y63376485D01*
X65811133Y63245577D01*
X65920045Y63058748D01*
X66052880Y62829203D01*
X66202017Y62570149D01*
X66359833Y62294791D01*
X66518709Y62016335D01*
X67089421Y61013626D01*
X67390180Y61012658D01*
X67679344Y60998986D01*
X68077273Y60929174D01*
X68422363Y60800347D01*
X68714347Y60612650D01*
X68952961Y60366226D01*
X69137942Y60061220D01*
X69188922Y59944008D01*
X69233714Y59801549D01*
X69261918Y59639521D01*
X69280261Y59427989D01*
X69287202Y59306498D01*
X69287209Y59306145D01*
X69290205Y59149151D01*
X69279551Y59024679D01*
G37*
G36*
X44880438Y61279590D02*
G01*
X44734012Y61082719D01*
X44547365Y60937441D01*
X44329382Y60856092D01*
X44287008Y60848098D01*
X44161013Y60827605D01*
X44069885Y60817297D01*
X43922112Y60826982D01*
X43731456Y60864147D01*
X43529915Y60921510D01*
X43347974Y60991705D01*
X43132480Y61090362D01*
X43061665Y61002908D01*
X43030129Y60970151D01*
X42964902Y60934016D01*
X42862767Y60912400D01*
X42702444Y60899158D01*
X42414039Y60882862D01*
X42436644Y61831705D01*
X42437830Y61878833D01*
X43162492Y61878833D01*
X43178080Y61748746D01*
X43234101Y61637607D01*
X43343153Y61543554D01*
X43517903Y61451352D01*
X43717335Y61379699D01*
X43927963Y61356264D01*
X44103563Y61401029D01*
X44240741Y61513699D01*
X44284587Y61578339D01*
X44338376Y61742026D01*
X44321134Y61902394D01*
X44236832Y62042833D01*
X44089439Y62146733D01*
X44088797Y62147022D01*
X43909473Y62196784D01*
X43695773Y62211374D01*
X43483136Y62191240D01*
X43307001Y62136831D01*
X43255090Y62110373D01*
X43191109Y62062213D01*
X43165881Y61995098D01*
X43162492Y61878833D01*
X42437830Y61878833D01*
X42440093Y61968813D01*
X42450540Y62293699D01*
X42463548Y62554141D01*
X42480475Y62761162D01*
X42502679Y62925784D01*
X42531518Y63059027D01*
X42568350Y63171913D01*
X42614533Y63275464D01*
X42655360Y63347491D01*
X42817561Y63534454D01*
X43029190Y63676282D01*
X43277891Y63772486D01*
X43551308Y63822577D01*
X43837085Y63826065D01*
X44122867Y63782462D01*
X44396298Y63691279D01*
X44645022Y63552025D01*
X44856684Y63364214D01*
X44963228Y63244569D01*
X44816934Y63148899D01*
X44765312Y63115635D01*
X44646059Y63050192D01*
X44549699Y63030423D01*
X44446011Y63054706D01*
X44304772Y63121420D01*
X44204863Y63168976D01*
X43936084Y63254339D01*
X43690282Y63264967D01*
X43465044Y63201087D01*
X43348794Y63131950D01*
X43222858Y63020328D01*
X43134110Y62899159D01*
X43100532Y62788782D01*
X43103372Y62764427D01*
X43122816Y62735860D01*
X43169727Y62714538D01*
X43254510Y62698758D01*
X43387570Y62686816D01*
X43579310Y62677007D01*
X43840135Y62667626D01*
X43956003Y62663497D01*
X44184408Y62650820D01*
X44355494Y62630225D01*
X44484912Y62596742D01*
X44588311Y62545402D01*
X44681343Y62471233D01*
X44779659Y62369266D01*
X44791672Y62355916D01*
X44907869Y62215229D01*
X44976351Y62096073D01*
X45008947Y61970700D01*
X45017486Y61811359D01*
X45017085Y61778770D01*
X45011592Y61742026D01*
X44977758Y61515718D01*
X44880438Y61279590D01*
G37*
G36*
X39711495Y61799377D02*
G01*
X39642709Y61619735D01*
X39554812Y61442347D01*
X39460487Y61292198D01*
X39372422Y61194273D01*
X39276936Y61115462D01*
X39171314Y61022181D01*
X39072188Y60951081D01*
X38969670Y60907230D01*
X38872412Y60884058D01*
X38747950Y60852150D01*
X38515040Y60821176D01*
X38242282Y60839436D01*
X37959589Y60904736D01*
X37691312Y61013359D01*
X37531466Y61094907D01*
X37458810Y61005181D01*
X37423594Y60968824D01*
X37358210Y60933264D01*
X37256387Y60912121D01*
X37096606Y60899094D01*
X36807057Y60882733D01*
X36833380Y62109887D01*
X36837209Y62303552D01*
X37519327Y62303552D01*
X37521094Y62183714D01*
X37536635Y62051774D01*
X37576229Y61935062D01*
X37649568Y61795783D01*
X37674620Y61753500D01*
X37797070Y61590690D01*
X37926612Y61493392D01*
X37993765Y61462971D01*
X38236956Y61402363D01*
X38474332Y61414558D01*
X38693424Y61495540D01*
X38881767Y61641296D01*
X39026894Y61847807D01*
X39067832Y61938572D01*
X39130418Y62180500D01*
X39130085Y62413172D01*
X39074842Y62628842D01*
X38972699Y62819765D01*
X38831663Y62978194D01*
X38659744Y63096383D01*
X38464949Y63166586D01*
X38255289Y63181058D01*
X38038771Y63132052D01*
X37823404Y63011822D01*
X37783845Y62980177D01*
X37636778Y62804866D01*
X37549102Y62580482D01*
X37519327Y62303552D01*
X36837209Y62303552D01*
X36840249Y62457268D01*
X36846572Y62830637D01*
X36851944Y63203562D01*
X36856108Y63556286D01*
X36858804Y63869049D01*
X36859773Y64122096D01*
X36859843Y64907151D01*
X37456087Y64907151D01*
X37456087Y64535636D01*
X37456158Y64507180D01*
X37460261Y64274998D01*
X37469434Y64022706D01*
X37481926Y63800100D01*
X37507765Y63436078D01*
X37645676Y63541268D01*
X37651065Y63545322D01*
X37812588Y63637709D01*
X38018240Y63717303D01*
X38234109Y63773116D01*
X38426280Y63794162D01*
X38540460Y63788240D01*
X38827832Y63723913D01*
X39098756Y63597096D01*
X39334385Y63418113D01*
X39515875Y63197288D01*
X39635477Y62959705D01*
X39733475Y62627325D01*
X39770917Y62275459D01*
X39763574Y62180500D01*
X39743889Y61925930D01*
X39711495Y61799377D01*
G37*
G36*
X31726886Y61515469D02*
G01*
X31593508Y61266547D01*
X31399118Y61045079D01*
X31155774Y60866526D01*
X31095899Y60841149D01*
X30931091Y60815939D01*
X30724500Y60823953D01*
X30495223Y60862540D01*
X30262359Y60929046D01*
X30045006Y61020819D01*
X29888228Y61100678D01*
X29812426Y61007066D01*
X29773669Y60966739D01*
X29708947Y60931198D01*
X29609303Y60910869D01*
X29452459Y60899068D01*
X29168294Y60884681D01*
X29179644Y61554367D01*
X29181534Y61651657D01*
X29188270Y61901189D01*
X29863912Y61901189D01*
X29867911Y61857908D01*
X29926295Y61719481D01*
X30042311Y61585582D01*
X30200569Y61471245D01*
X30385681Y61391501D01*
X30470108Y61367429D01*
X30568754Y61342537D01*
X30616432Y61335100D01*
X30652859Y61342690D01*
X30735488Y61358659D01*
X30814977Y61380951D01*
X30971101Y61479653D01*
X31076142Y61633622D01*
X31097203Y61699069D01*
X31096670Y61847689D01*
X31031916Y61978613D01*
X30913332Y62086110D01*
X30751308Y62164450D01*
X30556233Y62207905D01*
X30338498Y62210743D01*
X30108495Y62167236D01*
X30069405Y62155039D01*
X29945136Y62096985D01*
X29881692Y62017865D01*
X29863912Y61901189D01*
X29188270Y61901189D01*
X29189126Y61932912D01*
X29199515Y62221247D01*
X29211581Y62487804D01*
X29224205Y62703724D01*
X29239711Y62890813D01*
X29269522Y63099135D01*
X29315218Y63255857D01*
X29384202Y63377291D01*
X29483877Y63479747D01*
X29621644Y63579539D01*
X29876608Y63713124D01*
X30203269Y63806915D01*
X30542975Y63829629D01*
X30882176Y63780587D01*
X31207319Y63659107D01*
X31221655Y63651793D01*
X31363374Y63569707D01*
X31480748Y63485584D01*
X31549609Y63416550D01*
X31574752Y63376723D01*
X31595386Y63319690D01*
X31576043Y63261858D01*
X31511988Y63172501D01*
X31431804Y63077467D01*
X31343713Y63016897D01*
X31247705Y63016412D01*
X31119819Y63069735D01*
X30982600Y63137438D01*
X30762947Y63226921D01*
X30575487Y63271006D01*
X30401348Y63273207D01*
X30221658Y63237041D01*
X30156854Y63216352D01*
X30005648Y63137731D01*
X29915712Y63025646D01*
X29874484Y62866695D01*
X29853573Y62681173D01*
X30388281Y62681173D01*
X30408329Y62681151D01*
X30713957Y62673390D01*
X30954669Y62649746D01*
X31143247Y62607406D01*
X31292477Y62543561D01*
X31415141Y62455401D01*
X31418639Y62452290D01*
X31511679Y62372718D01*
X31589151Y62311296D01*
X31643522Y62249688D01*
X31706941Y62118904D01*
X31753916Y61957272D01*
X31776926Y61792441D01*
X31771289Y61699069D01*
X31768451Y61652060D01*
X31726886Y61515469D01*
G37*
G36*
X26501133Y62572279D02*
G01*
X26514068Y62383051D01*
X26514472Y62147407D01*
X26474686Y61875064D01*
X26382326Y61627470D01*
X26230308Y61379570D01*
X26223265Y61369913D01*
X26056668Y61192381D01*
X25844765Y61035783D01*
X25614317Y60916938D01*
X25392081Y60852667D01*
X25349817Y60846550D01*
X25023935Y60819030D01*
X24746217Y60838800D01*
X24499323Y60910655D01*
X24265913Y61039394D01*
X24028646Y61229812D01*
X23892936Y61364947D01*
X23811904Y61481059D01*
X23799751Y61570443D01*
X23855875Y61638778D01*
X23979673Y61691740D01*
X24037302Y61706852D01*
X24108698Y61712889D01*
X24189603Y61697669D01*
X24300655Y61656640D01*
X24462492Y61585249D01*
X24571240Y61538319D01*
X24855224Y61445134D01*
X25102068Y61415454D01*
X25320960Y61450250D01*
X25521087Y61550493D01*
X25711639Y61717151D01*
X25717252Y61723130D01*
X25832599Y61866532D01*
X25880298Y61976619D01*
X25859288Y62050993D01*
X25827873Y62067794D01*
X25718050Y62093654D01*
X25544468Y62116579D01*
X25316915Y62135809D01*
X25045176Y62150583D01*
X24739035Y62160140D01*
X24408278Y62163722D01*
X23702723Y62164428D01*
X23702723Y62435594D01*
X23702742Y62441830D01*
X23713274Y62601046D01*
X23739591Y62770776D01*
X23749930Y62814995D01*
X24379350Y62814995D01*
X24393033Y62758783D01*
X24467903Y62703714D01*
X24517830Y62695112D01*
X24639260Y62684162D01*
X24806953Y62674273D01*
X25002963Y62665960D01*
X25209344Y62659739D01*
X25408148Y62656124D01*
X25581430Y62655631D01*
X25711243Y62658774D01*
X25779640Y62666068D01*
X25798956Y62672254D01*
X25836723Y62694420D01*
X25838780Y62733542D01*
X25801581Y62805500D01*
X25721582Y62926172D01*
X25626344Y63049264D01*
X25461339Y63189032D01*
X25274176Y63258621D01*
X25053546Y63263745D01*
X24863612Y63226452D01*
X24674645Y63152058D01*
X24521191Y63052191D01*
X24417881Y62936590D01*
X24379350Y62814995D01*
X23749930Y62814995D01*
X23776482Y62928557D01*
X23818734Y63051925D01*
X23861137Y63118419D01*
X23873403Y63130960D01*
X23923495Y63195657D01*
X23990299Y63291249D01*
X24102414Y63421282D01*
X24279666Y63566469D01*
X24484141Y63691118D01*
X24688795Y63776441D01*
X24773800Y63799061D01*
X25082022Y63831509D01*
X25387626Y63792035D01*
X25679158Y63685844D01*
X25945166Y63518145D01*
X26174197Y63294143D01*
X26354798Y63019045D01*
X26371947Y62985145D01*
X26438138Y62841118D01*
X26472368Y62733542D01*
X26478512Y62714232D01*
X26501133Y62572279D01*
G37*
G36*
X46201162Y64620624D02*
G01*
X46202698Y64481221D01*
X46208105Y64262813D01*
X46216483Y64022061D01*
X46226858Y63790409D01*
X46252392Y63289786D01*
X47167706Y63263996D01*
X47319174Y63259871D01*
X47565414Y63253824D01*
X47777176Y63249455D01*
X47943215Y63246955D01*
X48052284Y63246514D01*
X48093138Y63248323D01*
X48094141Y63252414D01*
X48099109Y63313823D01*
X48105917Y63439434D01*
X48114015Y63617379D01*
X48122851Y63835789D01*
X48131876Y64082796D01*
X48160495Y64907151D01*
X48744976Y64907151D01*
X48744976Y63800586D01*
X48745313Y63612185D01*
X48747533Y63237483D01*
X48751553Y62843556D01*
X48757051Y62455084D01*
X48763705Y62096749D01*
X48771192Y61793231D01*
X48797407Y60892441D01*
X48108982Y60892441D01*
X48108982Y62601674D01*
X46201001Y62601674D01*
X46201001Y60892441D01*
X45529916Y60892441D01*
X45552877Y62889858D01*
X45553955Y62983217D01*
X45558507Y63368260D01*
X45562908Y63726515D01*
X45567055Y64050454D01*
X45570844Y64332547D01*
X45574173Y64565263D01*
X45576937Y64741074D01*
X45579034Y64852449D01*
X45580360Y64891860D01*
X45583048Y64892589D01*
X45637536Y64899224D01*
X45747297Y64910121D01*
X45892942Y64923329D01*
X46201001Y64950216D01*
X46201162Y64620624D01*
G37*
G36*
X40381613Y63765728D02*
G01*
X40585590Y63723010D01*
X40778958Y63650375D01*
X40934178Y63554233D01*
X41015052Y63493224D01*
X41100769Y63460403D01*
X41163529Y63494695D01*
X41218267Y63598423D01*
X41240420Y63652127D01*
X41283013Y63724035D01*
X41341735Y63749098D01*
X41446116Y63746510D01*
X41469404Y63744686D01*
X41566477Y63727288D01*
X41619517Y63681678D01*
X41658786Y63584855D01*
X41667207Y63549072D01*
X41683459Y63418361D01*
X41698472Y63211943D01*
X41712110Y62932354D01*
X41724238Y62582129D01*
X41734719Y62163806D01*
X41761788Y60892441D01*
X41080631Y60892441D01*
X41064565Y61836494D01*
X41061222Y62004443D01*
X41054164Y62260570D01*
X41045593Y62485339D01*
X41036077Y62666718D01*
X41026187Y62792671D01*
X41016494Y62851163D01*
X40992760Y62883675D01*
X40911719Y62955072D01*
X40801374Y63029090D01*
X40770843Y63046398D01*
X40642885Y63103124D01*
X40496753Y63137455D01*
X40301927Y63157222D01*
X40170015Y63166589D01*
X40063146Y63179652D01*
X40003253Y63200989D01*
X39972370Y63237802D01*
X39952534Y63297292D01*
X39951253Y63302087D01*
X39935951Y63427919D01*
X39942908Y63562764D01*
X39955440Y63622967D01*
X39999485Y63703747D01*
X40087566Y63751247D01*
X40194563Y63772121D01*
X40381613Y63765728D01*
G37*
G36*
X34415928Y63785433D02*
G01*
X34465089Y63776782D01*
X34502967Y63754404D01*
X34536299Y63705788D01*
X34571823Y63618425D01*
X34616274Y63479805D01*
X34676391Y63277417D01*
X34684782Y63248998D01*
X34771128Y62964341D01*
X34864126Y62669652D01*
X34956712Y62386568D01*
X35041825Y62136723D01*
X35112402Y61941752D01*
X35115899Y61932738D01*
X35145527Y61876996D01*
X35175237Y61871537D01*
X35209790Y61923080D01*
X35253949Y62038345D01*
X35312478Y62224053D01*
X35336593Y62303989D01*
X35445490Y62663578D01*
X35535243Y62955811D01*
X35608740Y63188083D01*
X35668867Y63367790D01*
X35718511Y63502328D01*
X35760558Y63599093D01*
X35797894Y63665480D01*
X35833406Y63708887D01*
X35869980Y63736708D01*
X35910503Y63756339D01*
X35988184Y63773601D01*
X36110071Y63777986D01*
X36238939Y63767999D01*
X36346068Y63746074D01*
X36402735Y63714642D01*
X36405541Y63660693D01*
X36385283Y63570168D01*
X36380521Y63555187D01*
X36347528Y63450069D01*
X36301468Y63302092D01*
X36250762Y63138294D01*
X36242512Y63111580D01*
X36104234Y62668097D01*
X35976052Y62265001D01*
X35859713Y61907424D01*
X35756962Y61600495D01*
X35669547Y61349345D01*
X35599213Y61159105D01*
X35547707Y61034906D01*
X35516775Y60981877D01*
X35454052Y60957713D01*
X35323084Y60938968D01*
X35146182Y60932190D01*
X34838953Y60932190D01*
X34654857Y61518497D01*
X34585633Y61735176D01*
X34494669Y62008796D01*
X34409162Y62254047D01*
X34332659Y62461394D01*
X34268708Y62621304D01*
X34220856Y62724241D01*
X34192651Y62760672D01*
X34185240Y62755705D01*
X34151117Y62693872D01*
X34099560Y62569187D01*
X34034020Y62391552D01*
X33957945Y62170869D01*
X33874786Y61917042D01*
X33787994Y61639972D01*
X33701017Y61349561D01*
X33676580Y61266197D01*
X33631967Y61115047D01*
X33597716Y61000383D01*
X33579756Y60942128D01*
X33575889Y60935182D01*
X33521430Y60910840D01*
X33401297Y60896891D01*
X33208811Y60892441D01*
X32854502Y60892441D01*
X32747795Y61240250D01*
X32719932Y61330602D01*
X32659498Y61525034D01*
X32586081Y61759932D01*
X32506512Y62013465D01*
X32427619Y62263802D01*
X32381888Y62408881D01*
X32274554Y62753143D01*
X32190043Y63031599D01*
X32126598Y63251251D01*
X32082460Y63419098D01*
X32055872Y63542140D01*
X32045075Y63627379D01*
X32048312Y63681814D01*
X32063824Y63712447D01*
X32088196Y63727359D01*
X32183016Y63748083D01*
X32309186Y63752863D01*
X32434848Y63741582D01*
X32528139Y63714126D01*
X32573816Y63678425D01*
X32620519Y63615601D01*
X32670645Y63518642D01*
X32726863Y63380388D01*
X32791841Y63193682D01*
X32868248Y62951363D01*
X32958753Y62646275D01*
X33066024Y62271258D01*
X33221194Y61722219D01*
X33313733Y62032760D01*
X33341852Y62125239D01*
X33399272Y62309200D01*
X33470742Y62534424D01*
X33549829Y62780676D01*
X33630098Y63027726D01*
X33853923Y63712151D01*
X34063959Y63755754D01*
X34139451Y63769280D01*
X34287158Y63785859D01*
X34402055Y63786822D01*
X34415928Y63785433D01*
G37*
G36*
X27266650Y63747972D02*
G01*
X27424471Y63695051D01*
X27600916Y63599664D01*
X27856557Y63444915D01*
X27932189Y63576740D01*
X27981109Y63643375D01*
X28089778Y63724656D01*
X28209885Y63758021D01*
X28320207Y63739464D01*
X28399523Y63664976D01*
X28415050Y63601813D01*
X28431331Y63467161D01*
X28447239Y63271754D01*
X28462316Y63025163D01*
X28476109Y62736962D01*
X28488160Y62416723D01*
X28498014Y62074018D01*
X28505215Y61718419D01*
X28509307Y61359499D01*
X28512425Y60892441D01*
X27836682Y60892441D01*
X27836460Y61697370D01*
X27836419Y61730236D01*
X27834000Y61983240D01*
X27828290Y62215612D01*
X27819896Y62412637D01*
X27809426Y62559600D01*
X27797487Y62641783D01*
X27796056Y62646756D01*
X27726985Y62785046D01*
X27610377Y62931038D01*
X27469683Y63059554D01*
X27328356Y63145418D01*
X27216182Y63175969D01*
X27000686Y63174125D01*
X26998973Y63173899D01*
X26842226Y63166093D01*
X26745882Y63199898D01*
X26697326Y63285650D01*
X26683943Y63433685D01*
X26687758Y63524023D01*
X26721835Y63657911D01*
X26797524Y63733953D01*
X26922441Y63762653D01*
X27093152Y63766667D01*
X27266650Y63747972D01*
G37*
G36*
X92845203Y70237507D02*
G01*
X92999754Y70222429D01*
X93222741Y70193189D01*
X93520517Y70149133D01*
X93899434Y70089608D01*
X94218556Y70036237D01*
X95309135Y69818526D01*
X96366418Y69552759D01*
X97382000Y69241931D01*
X98347476Y68889040D01*
X99254439Y68497084D01*
X100094485Y68069060D01*
X100859206Y67607964D01*
X101206156Y67370102D01*
X101680917Y67012350D01*
X102123716Y66640952D01*
X102526332Y66264211D01*
X102880544Y65890428D01*
X103178132Y65527903D01*
X103410876Y65184940D01*
X103570556Y64869839D01*
X103648146Y64655154D01*
X103750118Y64203109D01*
X103763963Y63763189D01*
X103689699Y63335469D01*
X103527342Y62920021D01*
X103276910Y62516921D01*
X102938420Y62126240D01*
X102897607Y62085761D01*
X102467909Y61714016D01*
X101966487Y61370650D01*
X101390921Y61054577D01*
X100738793Y60764708D01*
X100007682Y60499957D01*
X99195170Y60259237D01*
X98298837Y60041461D01*
X98172655Y60013662D01*
X97884102Y59949908D01*
X97601499Y59887251D01*
X97351830Y59831679D01*
X97162078Y59789180D01*
X96754844Y59697453D01*
X96276167Y58512027D01*
X96213021Y58355895D01*
X95998172Y57828346D01*
X95789642Y57321788D01*
X95590097Y56842385D01*
X95402205Y56396299D01*
X95228631Y55989694D01*
X95072044Y55628734D01*
X94935110Y55319583D01*
X94820495Y55068403D01*
X94730867Y54881357D01*
X94668893Y54764610D01*
X94637240Y54724325D01*
X94621724Y54731586D01*
X94540306Y54775631D01*
X94399148Y54854267D01*
X94209249Y54961310D01*
X93981609Y55090576D01*
X93727227Y55235884D01*
X93579446Y55320221D01*
X93336520Y55457426D01*
X93125223Y55574974D01*
X92956899Y55666641D01*
X92842894Y55726205D01*
X92794553Y55747442D01*
X92792272Y55746773D01*
X92757882Y55698510D01*
X92699554Y55585015D01*
X92624849Y55421896D01*
X92541331Y55224763D01*
X92476054Y55067324D01*
X92352864Y54776758D01*
X92193620Y54406851D01*
X91998751Y53958576D01*
X91768686Y53432907D01*
X91503852Y52830817D01*
X91204679Y52153280D01*
X90871595Y51401270D01*
X90505028Y50575760D01*
X90105407Y49677723D01*
X89673161Y48708135D01*
X89488318Y48294311D01*
X89283196Y47836219D01*
X89091105Y47408430D01*
X88914934Y47017319D01*
X88757573Y46669260D01*
X88621911Y46370625D01*
X88510835Y46127790D01*
X88427236Y45947127D01*
X88374003Y45835011D01*
X88354024Y45797815D01*
X88352904Y45808254D01*
X88355913Y45889879D01*
X88365813Y46041489D01*
X88381650Y46250200D01*
X88402470Y46503126D01*
X88427319Y46787385D01*
X88427784Y46792562D01*
X88457709Y47133909D01*
X88488290Y47496452D01*
X88517291Y47852749D01*
X88542478Y48175353D01*
X88561617Y48436822D01*
X88573990Y48599471D01*
X88602308Y48921874D01*
X88641492Y49327784D01*
X88691219Y49814330D01*
X88751163Y50378640D01*
X88821000Y51017845D01*
X88900406Y51729072D01*
X88989057Y52509452D01*
X89086627Y53356114D01*
X89192793Y54266187D01*
X89307229Y55236799D01*
X89429613Y56265081D01*
X89559619Y57348161D01*
X89696922Y58483169D01*
X89750784Y58926989D01*
X89812340Y59434221D01*
X89864661Y59864237D01*
X89908661Y60223318D01*
X89945253Y60517750D01*
X89975350Y60753813D01*
X89999865Y60937792D01*
X90019710Y61075969D01*
X90035800Y61174628D01*
X90049046Y61240050D01*
X90060362Y61278519D01*
X90070660Y61296318D01*
X90080855Y61299730D01*
X90091858Y61295037D01*
X90104584Y61288523D01*
X90113206Y61284394D01*
X90186933Y61241617D01*
X90319857Y61160255D01*
X90499945Y61047805D01*
X90715166Y60911761D01*
X90953489Y60759620D01*
X90981694Y60741532D01*
X91239596Y60576206D01*
X91490446Y60415529D01*
X91717289Y60270351D01*
X91903170Y60151524D01*
X92031133Y60069899D01*
X92320275Y59885902D01*
X92530574Y60318861D01*
X92585681Y60435176D01*
X92683409Y60648196D01*
X92802676Y60913429D01*
X92935958Y61213993D01*
X93075733Y61533003D01*
X93214475Y61853576D01*
X93216130Y61857425D01*
X93342639Y62149393D01*
X93459076Y62413793D01*
X93560506Y62639760D01*
X93641992Y62816426D01*
X93698599Y62932926D01*
X93725392Y62978393D01*
X93728257Y62979495D01*
X93794290Y62989268D01*
X93935570Y63003692D01*
X94140488Y63021784D01*
X94397437Y63042559D01*
X94694811Y63065034D01*
X95021000Y63088225D01*
X95410220Y63115922D01*
X95950540Y63158294D01*
X96421510Y63201211D01*
X96835059Y63246316D01*
X97203115Y63295255D01*
X97537607Y63349671D01*
X97850463Y63411210D01*
X98153611Y63481516D01*
X98458979Y63562234D01*
X98834377Y63683051D01*
X99213359Y63843748D01*
X99539442Y64025442D01*
X99805454Y64222724D01*
X100004223Y64430181D01*
X100128576Y64642404D01*
X100171341Y64853982D01*
X100145337Y65050559D01*
X100040487Y65329065D01*
X99856117Y65641252D01*
X99593151Y65985604D01*
X99252512Y66360606D01*
X99226706Y66387022D01*
X99018469Y66591351D01*
X98800933Y66787659D01*
X98567569Y66979997D01*
X98311850Y67172421D01*
X98027248Y67368982D01*
X97707235Y67573735D01*
X97345284Y67790734D01*
X96934867Y68024031D01*
X96469457Y68277681D01*
X95942524Y68555737D01*
X95347543Y68862253D01*
X94677984Y69201281D01*
X94665979Y69207321D01*
X94283253Y69400378D01*
X93924573Y69582300D01*
X93597871Y69748994D01*
X93311081Y69896367D01*
X93072134Y70020324D01*
X92888963Y70116774D01*
X92769501Y70181622D01*
X92721680Y70210775D01*
X92716004Y70227791D01*
X92752737Y70239076D01*
X92845203Y70237507D01*
G37*
G36*
X83239506Y70220079D02*
G01*
X83148046Y70164120D01*
X82991340Y70076249D01*
X82776800Y69960416D01*
X82511840Y69820572D01*
X82203873Y69660667D01*
X81860312Y69484652D01*
X81488571Y69296477D01*
X81410095Y69256966D01*
X80813653Y68955401D01*
X80289173Y68687506D01*
X79829243Y68449121D01*
X79426452Y68236087D01*
X79073388Y68044245D01*
X78762641Y67869435D01*
X78486799Y67707498D01*
X78238451Y67554274D01*
X78010185Y67405605D01*
X77794590Y67257330D01*
X77584255Y67105290D01*
X77411845Y66972221D01*
X77114175Y66718672D01*
X76821221Y66442238D01*
X76546758Y66157496D01*
X76304560Y65879023D01*
X76108401Y65621395D01*
X75972056Y65399189D01*
X75883396Y65198631D01*
X75822254Y64939450D01*
X75841032Y64705468D01*
X75941213Y64485674D01*
X76124281Y64269057D01*
X76340329Y64087980D01*
X76638971Y63902299D01*
X76998114Y63736821D01*
X77421685Y63590541D01*
X77913611Y63462452D01*
X78477819Y63351550D01*
X79118233Y63256829D01*
X79838783Y63177284D01*
X80643392Y63111909D01*
X80742899Y63105012D01*
X81053898Y63083245D01*
X81349749Y63062246D01*
X81612049Y63043338D01*
X81822394Y63027844D01*
X81962383Y63017086D01*
X82280498Y62991462D01*
X82714108Y61982850D01*
X82769255Y61854974D01*
X82910898Y61529641D01*
X83054506Y61203656D01*
X83190901Y60897659D01*
X83310908Y60632287D01*
X83405350Y60428180D01*
X83662982Y59882123D01*
X83921401Y60046517D01*
X83956862Y60069108D01*
X84095563Y60157711D01*
X84288305Y60281053D01*
X84520010Y60429475D01*
X84775598Y60593321D01*
X85039991Y60762934D01*
X85181415Y60853125D01*
X85414525Y60999132D01*
X85616311Y61122172D01*
X85775979Y61215829D01*
X85882734Y61273689D01*
X85925783Y61289337D01*
X85929393Y61282206D01*
X85939827Y61239799D01*
X85954465Y61157003D01*
X85973809Y61029820D01*
X85998365Y60854251D01*
X86028634Y60626296D01*
X86065122Y60341958D01*
X86108331Y59997236D01*
X86158765Y59588133D01*
X86216929Y59110650D01*
X86283324Y58560787D01*
X86358457Y57934546D01*
X86442829Y57227928D01*
X86536944Y56436934D01*
X86587802Y56008535D01*
X86706713Y55003522D01*
X86815199Y54081263D01*
X86913686Y53237818D01*
X87002604Y52469246D01*
X87082380Y51771606D01*
X87153441Y51140956D01*
X87216216Y50573356D01*
X87271132Y50064863D01*
X87318618Y49611539D01*
X87359101Y49209440D01*
X87393009Y48854627D01*
X87420770Y48543158D01*
X87442812Y48271091D01*
X87459562Y48034487D01*
X87471449Y47829404D01*
X87483008Y47631588D01*
X87502314Y47358269D01*
X87526123Y47059480D01*
X87552700Y46754263D01*
X87580309Y46461655D01*
X87607213Y46200698D01*
X87631676Y45990431D01*
X87651962Y45849894D01*
X87657422Y45816499D01*
X87658744Y45759928D01*
X87633401Y45783169D01*
X87618852Y45810216D01*
X87566954Y45918015D01*
X87483756Y46097435D01*
X87372038Y46342190D01*
X87234579Y46645995D01*
X87074157Y47002564D01*
X86893551Y47405612D01*
X86695539Y47848852D01*
X86482900Y48326001D01*
X86258413Y48830771D01*
X86024856Y49356877D01*
X85785008Y49898035D01*
X85541647Y50447958D01*
X85297553Y51000360D01*
X85055503Y51548957D01*
X84818277Y52087462D01*
X84588653Y52609590D01*
X84369409Y53109056D01*
X84163325Y53579574D01*
X83973179Y54014858D01*
X83801749Y54408623D01*
X83651814Y54754583D01*
X83526154Y55046453D01*
X83427545Y55277947D01*
X83358768Y55442780D01*
X83322600Y55534665D01*
X83292453Y55611396D01*
X83242223Y55709195D01*
X83204235Y55747442D01*
X83184751Y55740363D01*
X83096523Y55696505D01*
X82949153Y55617917D01*
X82754032Y55510811D01*
X82522549Y55381396D01*
X82266094Y55235884D01*
X82115184Y55149864D01*
X81873750Y55013149D01*
X81664977Y54896057D01*
X81499982Y54804770D01*
X81389881Y54745466D01*
X81345791Y54724325D01*
X81321315Y54756800D01*
X81265188Y54864743D01*
X81181644Y55041248D01*
X81073821Y55278996D01*
X80944856Y55570664D01*
X80797884Y55908932D01*
X80636043Y56286478D01*
X80462468Y56695982D01*
X80280296Y57130121D01*
X80092664Y57581574D01*
X79902708Y58043021D01*
X79713564Y58507140D01*
X79528369Y58966610D01*
X79460844Y59132845D01*
X79354057Y59382047D01*
X79269698Y59556868D01*
X79204427Y59663960D01*
X79154902Y59709972D01*
X79115988Y59721877D01*
X78995307Y59752412D01*
X78809893Y59796135D01*
X78572885Y59850026D01*
X78297419Y59911065D01*
X77996632Y59976232D01*
X77514313Y60082965D01*
X76906096Y60230103D01*
X76363240Y60378635D01*
X75872103Y60532937D01*
X75419041Y60697383D01*
X74990410Y60876349D01*
X74572566Y61074209D01*
X74356720Y61186065D01*
X73796343Y61519320D01*
X73321148Y61871745D01*
X72931509Y62242884D01*
X72627804Y62632281D01*
X72410406Y63039483D01*
X72279692Y63464034D01*
X72236037Y63905479D01*
X72245917Y64151631D01*
X72308513Y64533329D01*
X72434378Y64897310D01*
X72629984Y65260425D01*
X72901800Y65639531D01*
X72939329Y65686355D01*
X73470234Y66277135D01*
X74080921Y66836561D01*
X74767500Y67362806D01*
X75526080Y67854044D01*
X76352769Y68308446D01*
X77243677Y68724185D01*
X78194912Y69099434D01*
X79202584Y69432366D01*
X80262801Y69721153D01*
X81371673Y69963968D01*
X82525308Y70158984D01*
X82631712Y70174100D01*
X82858847Y70204088D01*
X83050896Y70226376D01*
X83190245Y70239019D01*
X83259278Y70240071D01*
X83239506Y70220079D01*
G37*
D11*
%TO.C,J2*%
X63500000Y26040000D02*
X54500000Y26040000D01*
X63500000Y26040000D02*
X63500000Y24090000D01*
X54500000Y26040000D02*
X54500000Y20090000D01*
X63500000Y15340000D02*
X63500000Y19590000D01*
X63500000Y15340000D02*
X54500000Y15340000D01*
X54500000Y15340000D02*
X54500000Y18090000D01*
X61200000Y24140000D02*
G75*
G03*
X56133755Y20456295I-2200000J-2300000D01*
G01*
X59000000Y18640000D02*
G75*
G03*
X61262742Y19577258I2J3199997D01*
G01*
%TO.C,J1*%
X67245000Y101005000D02*
X64645000Y101005000D01*
X64645000Y103605000D02*
X64645000Y102275000D01*
X64645000Y98405000D02*
X72385000Y98405000D01*
X67245000Y103605000D02*
X72385000Y103605000D01*
X67245000Y103605000D02*
X67245000Y101005000D01*
X65975000Y103605000D02*
X64645000Y103605000D01*
X64645000Y101005000D02*
X64645000Y98405000D01*
X72385000Y103605000D02*
X72385000Y98405000D01*
%TO.C,J3*%
X57180000Y79170000D02*
X57180000Y80500000D01*
X54580000Y79170000D02*
X54580000Y81830000D01*
X41820000Y79170000D02*
X41820000Y81830000D01*
X54580000Y79170000D02*
X41820000Y79170000D01*
X54580000Y81830000D02*
X41820000Y81830000D01*
X55850000Y79170000D02*
X57180000Y79170000D01*
%TO.C,BT1*%
X12950017Y58663686D02*
X12950017Y61113686D01*
X13500017Y61663686D02*
X18500017Y61663686D01*
X19050017Y61113686D02*
X19050017Y58663686D01*
X15484026Y34350243D02*
G75*
G03*
X19520017Y57963686I515991J12063443D01*
G01*
X19050017Y61113686D02*
G75*
G03*
X18500017Y61663686I-549999J1D01*
G01*
X12456532Y57958917D02*
G75*
G03*
X12950017Y58663686I-256515J704769D01*
G01*
X13500017Y61663686D02*
G75*
G03*
X12950017Y61113686I-1J-549999D01*
G01*
X19050017Y58663686D02*
G75*
G03*
X19543502Y57958917I750000J0D01*
G01*
X12480017Y57963686D02*
G75*
G03*
X16516008Y34350243I3520000J-11550000D01*
G01*
%TD*%
%LPC*%
D12*
%TO.C,H4*%
X4500000Y59000000D03*
%TD*%
D13*
%TO.C,U2*%
X25700000Y93300000D03*
D14*
X25700000Y90760000D03*
X25700000Y88220000D03*
X25700000Y85680000D03*
X33320000Y85680000D03*
X33320000Y88220000D03*
X33320000Y90760000D03*
X33320000Y93300000D03*
%TD*%
D15*
%TO.C,R6*%
X60600000Y105500000D03*
X57200000Y105500000D03*
%TD*%
D12*
%TO.C,H2*%
X113500000Y59000000D03*
%TD*%
D16*
%TO.C,RV1*%
X27015000Y28960000D03*
X29555000Y31500000D03*
X27015000Y34040000D03*
%TD*%
D17*
%TO.C,BZ1*%
X96500000Y31000000D03*
D18*
X101500000Y31000000D03*
%TD*%
D12*
%TO.C,H3*%
X59000000Y4500000D03*
%TD*%
%TO.C,H1*%
X59000000Y113500000D03*
%TD*%
D19*
%TO.C,DS1*%
X96500000Y74357500D03*
X96499480Y43356800D03*
X21500900Y43356800D03*
X21500900Y74357500D03*
D20*
X27000000Y74357500D03*
D21*
X29540000Y74357500D03*
X32080000Y74357500D03*
X34620000Y74357500D03*
X37160000Y74357500D03*
X39700000Y74357500D03*
X42240000Y74357500D03*
X44780000Y74357500D03*
X47320000Y74357500D03*
X49860000Y74357500D03*
X52400000Y74357500D03*
X54940000Y74357500D03*
X57480000Y74357500D03*
X60020000Y74357500D03*
X62560000Y74357500D03*
X65100000Y74357500D03*
%TD*%
D13*
%TO.C,U1*%
X43000000Y87700000D03*
D14*
X45540000Y87700000D03*
X48080000Y87700000D03*
X50620000Y87700000D03*
X53160000Y87700000D03*
X55700000Y87700000D03*
X58240000Y87700000D03*
X60780000Y87700000D03*
X63320000Y87700000D03*
X65860000Y87700000D03*
X68400000Y87700000D03*
X70940000Y87700000D03*
X73480000Y87700000D03*
X76020000Y87700000D03*
X76020000Y95320000D03*
X73480000Y95320000D03*
X70940000Y95320000D03*
X68400000Y95320000D03*
X65860000Y95320000D03*
X63320000Y95320000D03*
X60780000Y95320000D03*
X58240000Y95320000D03*
X55700000Y95320000D03*
X53160000Y95320000D03*
X50620000Y95320000D03*
X48080000Y95320000D03*
X45540000Y95320000D03*
X43000000Y95320000D03*
%TD*%
D22*
%TO.C,J2*%
X62500000Y21840000D03*
D23*
X60200000Y16540000D03*
X56500000Y19040000D03*
%TD*%
D24*
%TO.C,J1*%
X65975000Y102275000D03*
D25*
X65975000Y99735000D03*
X68515000Y102275000D03*
X68515000Y99735000D03*
X71055000Y102275000D03*
X71055000Y99735000D03*
%TD*%
D24*
%TO.C,J3*%
X55850000Y80500000D03*
D25*
X53310000Y80500000D03*
X50770000Y80500000D03*
X48230000Y80500000D03*
X45690000Y80500000D03*
X43150000Y80500000D03*
%TD*%
D26*
%TO.C,BT1*%
X16000017Y59613686D03*
D19*
X16000017Y39123686D03*
%TD*%
M02*
