%TF.GenerationSoftware,KiCad,Pcbnew,(6.0.5)*%
%TF.CreationDate,2022-07-26T12:17:50-04:00*%
%TF.ProjectId,Clock_design,436c6f63-6b5f-4646-9573-69676e2e6b69,rev?*%
%TF.SameCoordinates,PX56c8cc0PY97a25c0*%
%TF.FileFunction,Paste,Top*%
%TF.FilePolarity,Positive*%
%FSLAX46Y46*%
G04 Gerber Fmt 4.6, Leading zero omitted, Abs format (unit mm)*
G04 Created by KiCad (PCBNEW (6.0.5)) date 2022-07-26 12:17:50*
%MOMM*%
%LPD*%
G01*
G04 APERTURE LIST*
G04 Aperture macros list*
%AMRoundRect*
0 Rectangle with rounded corners*
0 $1 Rounding radius*
0 $2 $3 $4 $5 $6 $7 $8 $9 X,Y pos of 4 corners*
0 Add a 4 corners polygon primitive as box body*
4,1,4,$2,$3,$4,$5,$6,$7,$8,$9,$2,$3,0*
0 Add four circle primitives for the rounded corners*
1,1,$1+$1,$2,$3*
1,1,$1+$1,$4,$5*
1,1,$1+$1,$6,$7*
1,1,$1+$1,$8,$9*
0 Add four rect primitives between the rounded corners*
20,1,$1+$1,$2,$3,$4,$5,0*
20,1,$1+$1,$4,$5,$6,$7,0*
20,1,$1+$1,$6,$7,$8,$9,0*
20,1,$1+$1,$8,$9,$2,$3,0*%
G04 Aperture macros list end*
%ADD10R,1.600000X1.400000*%
%ADD11R,1.150000X1.400000*%
%ADD12R,1.400000X1.150000*%
%ADD13R,0.900000X0.800000*%
%ADD14R,3.050000X2.750000*%
%ADD15R,2.200000X1.200000*%
%ADD16RoundRect,0.243750X0.243750X0.456250X-0.243750X0.456250X-0.243750X-0.456250X0.243750X-0.456250X0*%
%ADD17R,4.500000X2.000000*%
%ADD18R,1.800000X1.000000*%
G04 APERTURE END LIST*
D10*
%TO.C,SW4*%
X43000000Y103750000D03*
X51000000Y103750000D03*
X43000000Y99250000D03*
X51000000Y99250000D03*
%TD*%
%TO.C,SW1*%
X55000000Y33250000D03*
X63000000Y33250000D03*
X55000000Y28750000D03*
X63000000Y28750000D03*
%TD*%
D11*
%TO.C,R3*%
X31800000Y80500000D03*
X33500000Y80500000D03*
%TD*%
D12*
%TO.C,R13*%
X75500000Y102150000D03*
X75500000Y103850000D03*
%TD*%
D13*
%TO.C,Q1*%
X100500000Y49950000D03*
X100500000Y48050000D03*
X102500000Y49000000D03*
%TD*%
D11*
%TO.C,C5*%
X72300000Y23500000D03*
X74000000Y23500000D03*
%TD*%
D12*
%TO.C,R9*%
X86500000Y30200000D03*
X86500000Y28500000D03*
%TD*%
D11*
%TO.C,R7*%
X55650000Y98500000D03*
X57350000Y98500000D03*
%TD*%
D14*
%TO.C,U3*%
X77150000Y19500000D03*
X80500000Y19500000D03*
X80500000Y16450000D03*
X77150000Y16450000D03*
D15*
X72525000Y20255000D03*
X72525000Y15695000D03*
%TD*%
D16*
%TO.C,D1*%
X70437500Y106500000D03*
X68562500Y106500000D03*
%TD*%
D12*
%TO.C,C6*%
X66650000Y14350000D03*
X66650000Y12650000D03*
%TD*%
%TO.C,R12*%
X45500000Y85350000D03*
X45500000Y83650000D03*
%TD*%
%TO.C,R10*%
X46000000Y29850000D03*
X46000000Y28150000D03*
%TD*%
%TO.C,C1*%
X61000000Y97500000D03*
X61000000Y99200000D03*
%TD*%
D11*
%TO.C,R1*%
X37500000Y85000000D03*
X39200000Y85000000D03*
%TD*%
D12*
%TO.C,R11*%
X48500000Y85350000D03*
X48500000Y83650000D03*
%TD*%
D11*
%TO.C,R4*%
X102000000Y43500000D03*
X103700000Y43500000D03*
%TD*%
D10*
%TO.C,SW3*%
X35000000Y33250000D03*
X43000000Y33250000D03*
X35000000Y28750000D03*
X43000000Y28750000D03*
%TD*%
D11*
%TO.C,C4*%
X74800000Y78500000D03*
X76500000Y78500000D03*
%TD*%
D10*
%TO.C,SW2*%
X75000000Y33250000D03*
X83000000Y33250000D03*
X75000000Y28750000D03*
X83000000Y28750000D03*
%TD*%
D17*
%TO.C,Y1*%
X75000000Y83000000D03*
X66500000Y83000000D03*
%TD*%
D11*
%TO.C,C2*%
X60150000Y83000000D03*
X61850000Y83000000D03*
%TD*%
%TO.C,R2*%
X26800000Y80500000D03*
X28500000Y80500000D03*
%TD*%
D18*
%TO.C,Y2*%
X20500000Y90750000D03*
X20500000Y93250000D03*
%TD*%
D11*
%TO.C,C3*%
X66150000Y79000000D03*
X67850000Y79000000D03*
%TD*%
%TO.C,R5*%
X102800000Y58000000D03*
X104500000Y58000000D03*
%TD*%
D12*
%TO.C,C7*%
X42500000Y85350000D03*
X42500000Y83650000D03*
%TD*%
%TO.C,R8*%
X66500000Y30200000D03*
X66500000Y28500000D03*
%TD*%
M02*
