%TF.GenerationSoftware,KiCad,Pcbnew,(6.0.5)*%
%TF.CreationDate,2022-07-26T12:17:50-04:00*%
%TF.ProjectId,Clock_design,436c6f63-6b5f-4646-9573-69676e2e6b69,rev?*%
%TF.SameCoordinates,PX56c8cc0PY97a25c0*%
%TF.FileFunction,Legend,Top*%
%TF.FilePolarity,Positive*%
%FSLAX46Y46*%
G04 Gerber Fmt 4.6, Leading zero omitted, Abs format (unit mm)*
G04 Created by KiCad (PCBNEW (6.0.5)) date 2022-07-26 12:17:50*
%MOMM*%
%LPD*%
G01*
G04 APERTURE LIST*
G04 Aperture macros list*
%AMRoundRect*
0 Rectangle with rounded corners*
0 $1 Rounding radius*
0 $2 $3 $4 $5 $6 $7 $8 $9 X,Y pos of 4 corners*
0 Add a 4 corners polygon primitive as box body*
4,1,4,$2,$3,$4,$5,$6,$7,$8,$9,$2,$3,0*
0 Add four circle primitives for the rounded corners*
1,1,$1+$1,$2,$3*
1,1,$1+$1,$4,$5*
1,1,$1+$1,$6,$7*
1,1,$1+$1,$8,$9*
0 Add four rect primitives between the rounded corners*
20,1,$1+$1,$2,$3,$4,$5,0*
20,1,$1+$1,$4,$5,$6,$7,0*
20,1,$1+$1,$6,$7,$8,$9,0*
20,1,$1+$1,$8,$9,$2,$3,0*%
G04 Aperture macros list end*
%ADD10C,0.150000*%
%ADD11C,0.120000*%
%ADD12C,3.200000*%
%ADD13R,1.600000X1.400000*%
%ADD14R,1.150000X1.400000*%
%ADD15R,1.400000X1.150000*%
%ADD16R,0.900000X0.800000*%
%ADD17R,1.600000X1.600000*%
%ADD18O,1.600000X1.600000*%
%ADD19R,2.200000X1.200000*%
%ADD20R,6.400000X5.800000*%
%ADD21RoundRect,0.243750X0.243750X0.456250X-0.243750X0.456250X-0.243750X-0.456250X0.243750X-0.456250X0*%
%ADD22C,1.600000*%
%ADD23C,1.440000*%
%ADD24R,2.000000X2.000000*%
%ADD25C,2.000000*%
%ADD26C,3.000000*%
%ADD27R,1.800000X2.600000*%
%ADD28O,1.800000X2.600000*%
%ADD29R,4.500000X2.000000*%
%ADD30R,1.800000X1.000000*%
%ADD31RoundRect,0.500000X0.500000X-1.750000X0.500000X1.750000X-0.500000X1.750000X-0.500000X-1.750000X0*%
%ADD32RoundRect,0.500000X1.500000X0.500000X-1.500000X0.500000X-1.500000X-0.500000X1.500000X-0.500000X0*%
%ADD33R,1.700000X1.700000*%
%ADD34O,1.700000X1.700000*%
%ADD35R,3.000000X3.000000*%
G04 APERTURE END LIST*
D10*
X49857142Y37095239D02*
X49857142Y39095239D01*
X50333333Y39095239D01*
X50619047Y39000000D01*
X50809523Y38809524D01*
X50904761Y38619048D01*
X51000000Y38238096D01*
X51000000Y37952381D01*
X50904761Y37571429D01*
X50809523Y37380953D01*
X50619047Y37190477D01*
X50333333Y37095239D01*
X49857142Y37095239D01*
X52619047Y37190477D02*
X52428571Y37095239D01*
X52047619Y37095239D01*
X51857142Y37190477D01*
X51761904Y37380953D01*
X51761904Y38142858D01*
X51857142Y38333334D01*
X52047619Y38428572D01*
X52428571Y38428572D01*
X52619047Y38333334D01*
X52714285Y38142858D01*
X52714285Y37952381D01*
X51761904Y37761905D01*
X53476190Y37190477D02*
X53666666Y37095239D01*
X54047619Y37095239D01*
X54238095Y37190477D01*
X54333333Y37380953D01*
X54333333Y37476191D01*
X54238095Y37666667D01*
X54047619Y37761905D01*
X53761904Y37761905D01*
X53571428Y37857143D01*
X53476190Y38047620D01*
X53476190Y38142858D01*
X53571428Y38333334D01*
X53761904Y38428572D01*
X54047619Y38428572D01*
X54238095Y38333334D01*
X55000000Y38428572D02*
X55476190Y37095239D01*
X55952380Y38428572D01*
X57571428Y37095239D02*
X57571428Y38142858D01*
X57476190Y38333334D01*
X57285714Y38428572D01*
X56904761Y38428572D01*
X56714285Y38333334D01*
X57571428Y37190477D02*
X57380952Y37095239D01*
X56904761Y37095239D01*
X56714285Y37190477D01*
X56619047Y37380953D01*
X56619047Y37571429D01*
X56714285Y37761905D01*
X56904761Y37857143D01*
X57380952Y37857143D01*
X57571428Y37952381D01*
X59380952Y38428572D02*
X59380952Y37095239D01*
X58523809Y38428572D02*
X58523809Y37380953D01*
X58619047Y37190477D01*
X58809523Y37095239D01*
X59095238Y37095239D01*
X59285714Y37190477D01*
X59380952Y37285715D01*
X60333333Y38428572D02*
X60333333Y37095239D01*
X60333333Y38238096D02*
X60428571Y38333334D01*
X60619047Y38428572D01*
X60904761Y38428572D01*
X61095238Y38333334D01*
X61190476Y38142858D01*
X61190476Y37095239D01*
X62238095Y39095239D02*
X62047619Y38714286D01*
X63000000Y37190477D02*
X63190476Y37095239D01*
X63571428Y37095239D01*
X63761904Y37190477D01*
X63857142Y37380953D01*
X63857142Y37476191D01*
X63761904Y37666667D01*
X63571428Y37761905D01*
X63285714Y37761905D01*
X63095238Y37857143D01*
X63000000Y38047620D01*
X63000000Y38142858D01*
X63095238Y38333334D01*
X63285714Y38428572D01*
X63571428Y38428572D01*
X63761904Y38333334D01*
X66238095Y37095239D02*
X66238095Y39095239D01*
X66238095Y38142858D02*
X67380952Y38142858D01*
X67380952Y37095239D02*
X67380952Y39095239D01*
X68333333Y37095239D02*
X68333333Y39095239D01*
X69095238Y39095239D01*
X69285714Y39000000D01*
X69380952Y38904762D01*
X69476190Y38714286D01*
X69476190Y38428572D01*
X69380952Y38238096D01*
X69285714Y38142858D01*
X69095238Y38047620D01*
X68333333Y38047620D01*
X70238095Y37190477D02*
X70523809Y37095239D01*
X71000000Y37095239D01*
X71190476Y37190477D01*
X71285714Y37285715D01*
X71380952Y37476191D01*
X71380952Y37666667D01*
X71285714Y37857143D01*
X71190476Y37952381D01*
X71000000Y38047620D01*
X70619047Y38142858D01*
X70428571Y38238096D01*
X70333333Y38333334D01*
X70238095Y38523810D01*
X70238095Y38714286D01*
X70333333Y38904762D01*
X70428571Y39000000D01*
X70619047Y39095239D01*
X71095238Y39095239D01*
X71380952Y39000000D01*
X73666666Y38904762D02*
X73761904Y39000000D01*
X73952380Y39095239D01*
X74428571Y39095239D01*
X74619047Y39000000D01*
X74714285Y38904762D01*
X74809523Y38714286D01*
X74809523Y38523810D01*
X74714285Y38238096D01*
X73571428Y37095239D01*
X74809523Y37095239D01*
X76047619Y39095239D02*
X76238095Y39095239D01*
X76428571Y39000000D01*
X76523809Y38904762D01*
X76619047Y38714286D01*
X76714285Y38333334D01*
X76714285Y37857143D01*
X76619047Y37476191D01*
X76523809Y37285715D01*
X76428571Y37190477D01*
X76238095Y37095239D01*
X76047619Y37095239D01*
X75857142Y37190477D01*
X75761904Y37285715D01*
X75666666Y37476191D01*
X75571428Y37857143D01*
X75571428Y38333334D01*
X75666666Y38714286D01*
X75761904Y38904762D01*
X75857142Y39000000D01*
X76047619Y39095239D01*
X77476190Y38904762D02*
X77571428Y39000000D01*
X77761904Y39095239D01*
X78238095Y39095239D01*
X78428571Y39000000D01*
X78523809Y38904762D01*
X78619047Y38714286D01*
X78619047Y38523810D01*
X78523809Y38238096D01*
X77380952Y37095239D01*
X78619047Y37095239D01*
X79380952Y38904762D02*
X79476190Y39000000D01*
X79666666Y39095239D01*
X80142857Y39095239D01*
X80333333Y39000000D01*
X80428571Y38904762D01*
X80523809Y38714286D01*
X80523809Y38523810D01*
X80428571Y38238096D01*
X79285714Y37095239D01*
X80523809Y37095239D01*
X84047619Y37285715D02*
X83952380Y37190477D01*
X83666666Y37095239D01*
X83476190Y37095239D01*
X83190476Y37190477D01*
X83000000Y37380953D01*
X82904761Y37571429D01*
X82809523Y37952381D01*
X82809523Y38238096D01*
X82904761Y38619048D01*
X83000000Y38809524D01*
X83190476Y39000000D01*
X83476190Y39095239D01*
X83666666Y39095239D01*
X83952380Y39000000D01*
X84047619Y38904762D01*
X85190476Y37095239D02*
X85000000Y37190477D01*
X84904761Y37380953D01*
X84904761Y39095239D01*
X86238095Y37095239D02*
X86047619Y37190477D01*
X85952380Y37285715D01*
X85857142Y37476191D01*
X85857142Y38047620D01*
X85952380Y38238096D01*
X86047619Y38333334D01*
X86238095Y38428572D01*
X86523809Y38428572D01*
X86714285Y38333334D01*
X86809523Y38238096D01*
X86904761Y38047620D01*
X86904761Y37476191D01*
X86809523Y37285715D01*
X86714285Y37190477D01*
X86523809Y37095239D01*
X86238095Y37095239D01*
X88619047Y37190477D02*
X88428571Y37095239D01*
X88047619Y37095239D01*
X87857142Y37190477D01*
X87761904Y37285715D01*
X87666666Y37476191D01*
X87666666Y38047620D01*
X87761904Y38238096D01*
X87857142Y38333334D01*
X88047619Y38428572D01*
X88428571Y38428572D01*
X88619047Y38333334D01*
X89476190Y37095239D02*
X89476190Y39095239D01*
X89666666Y37857143D02*
X90238095Y37095239D01*
X90238095Y38428572D02*
X89476190Y37666667D01*
%TO.C,H4*%
X3738095Y62747620D02*
X3738095Y63747620D01*
X3738095Y63271429D02*
X4309523Y63271429D01*
X4309523Y62747620D02*
X4309523Y63747620D01*
X5214285Y63414286D02*
X5214285Y62747620D01*
X4976190Y63795239D02*
X4738095Y63080953D01*
X5357142Y63080953D01*
%TO.C,SW4*%
X45666666Y105395239D02*
X45809523Y105347620D01*
X46047619Y105347620D01*
X46142857Y105395239D01*
X46190476Y105442858D01*
X46238095Y105538096D01*
X46238095Y105633334D01*
X46190476Y105728572D01*
X46142857Y105776191D01*
X46047619Y105823810D01*
X45857142Y105871429D01*
X45761904Y105919048D01*
X45714285Y105966667D01*
X45666666Y106061905D01*
X45666666Y106157143D01*
X45714285Y106252381D01*
X45761904Y106300000D01*
X45857142Y106347620D01*
X46095238Y106347620D01*
X46238095Y106300000D01*
X46571428Y106347620D02*
X46809523Y105347620D01*
X47000000Y106061905D01*
X47190476Y105347620D01*
X47428571Y106347620D01*
X48238095Y106014286D02*
X48238095Y105347620D01*
X48000000Y106395239D02*
X47761904Y105680953D01*
X48380952Y105680953D01*
%TO.C,SW1*%
X57666666Y34895239D02*
X57809523Y34847620D01*
X58047619Y34847620D01*
X58142857Y34895239D01*
X58190476Y34942858D01*
X58238095Y35038096D01*
X58238095Y35133334D01*
X58190476Y35228572D01*
X58142857Y35276191D01*
X58047619Y35323810D01*
X57857142Y35371429D01*
X57761904Y35419048D01*
X57714285Y35466667D01*
X57666666Y35561905D01*
X57666666Y35657143D01*
X57714285Y35752381D01*
X57761904Y35800000D01*
X57857142Y35847620D01*
X58095238Y35847620D01*
X58238095Y35800000D01*
X58571428Y35847620D02*
X58809523Y34847620D01*
X59000000Y35561905D01*
X59190476Y34847620D01*
X59428571Y35847620D01*
X60333333Y34847620D02*
X59761904Y34847620D01*
X60047619Y34847620D02*
X60047619Y35847620D01*
X59952380Y35704762D01*
X59857142Y35609524D01*
X59761904Y35561905D01*
%TO.C,R3*%
X32483333Y81697620D02*
X32150000Y82173810D01*
X31911904Y81697620D02*
X31911904Y82697620D01*
X32292857Y82697620D01*
X32388095Y82650000D01*
X32435714Y82602381D01*
X32483333Y82507143D01*
X32483333Y82364286D01*
X32435714Y82269048D01*
X32388095Y82221429D01*
X32292857Y82173810D01*
X31911904Y82173810D01*
X32816666Y82697620D02*
X33435714Y82697620D01*
X33102380Y82316667D01*
X33245238Y82316667D01*
X33340476Y82269048D01*
X33388095Y82221429D01*
X33435714Y82126191D01*
X33435714Y81888096D01*
X33388095Y81792858D01*
X33340476Y81745239D01*
X33245238Y81697620D01*
X32959523Y81697620D01*
X32864285Y81745239D01*
X32816666Y81792858D01*
%TO.C,R13*%
X77952380Y102357143D02*
X77476190Y102023810D01*
X77952380Y101785715D02*
X76952380Y101785715D01*
X76952380Y102166667D01*
X77000000Y102261905D01*
X77047619Y102309524D01*
X77142857Y102357143D01*
X77285714Y102357143D01*
X77380952Y102309524D01*
X77428571Y102261905D01*
X77476190Y102166667D01*
X77476190Y101785715D01*
X77952380Y103309524D02*
X77952380Y102738096D01*
X77952380Y103023810D02*
X76952380Y103023810D01*
X77095238Y102928572D01*
X77190476Y102833334D01*
X77238095Y102738096D01*
X76952380Y103642858D02*
X76952380Y104261905D01*
X77333333Y103928572D01*
X77333333Y104071429D01*
X77380952Y104166667D01*
X77428571Y104214286D01*
X77523809Y104261905D01*
X77761904Y104261905D01*
X77857142Y104214286D01*
X77904761Y104166667D01*
X77952380Y104071429D01*
X77952380Y103785715D01*
X77904761Y103690477D01*
X77857142Y103642858D01*
%TO.C,Q1*%
X104404761Y48952381D02*
X104309523Y49000000D01*
X104214285Y49095239D01*
X104071428Y49238096D01*
X103976190Y49285715D01*
X103880952Y49285715D01*
X103928571Y49047620D02*
X103833333Y49095239D01*
X103738095Y49190477D01*
X103690476Y49380953D01*
X103690476Y49714286D01*
X103738095Y49904762D01*
X103833333Y50000000D01*
X103928571Y50047620D01*
X104119047Y50047620D01*
X104214285Y50000000D01*
X104309523Y49904762D01*
X104357142Y49714286D01*
X104357142Y49380953D01*
X104309523Y49190477D01*
X104214285Y49095239D01*
X104119047Y49047620D01*
X103928571Y49047620D01*
X105309523Y49047620D02*
X104738095Y49047620D01*
X105023809Y49047620D02*
X105023809Y50047620D01*
X104928571Y49904762D01*
X104833333Y49809524D01*
X104738095Y49761905D01*
%TO.C,C5*%
X72983333Y24792858D02*
X72935714Y24745239D01*
X72792857Y24697620D01*
X72697619Y24697620D01*
X72554761Y24745239D01*
X72459523Y24840477D01*
X72411904Y24935715D01*
X72364285Y25126191D01*
X72364285Y25269048D01*
X72411904Y25459524D01*
X72459523Y25554762D01*
X72554761Y25650000D01*
X72697619Y25697620D01*
X72792857Y25697620D01*
X72935714Y25650000D01*
X72983333Y25602381D01*
X73888095Y25697620D02*
X73411904Y25697620D01*
X73364285Y25221429D01*
X73411904Y25269048D01*
X73507142Y25316667D01*
X73745238Y25316667D01*
X73840476Y25269048D01*
X73888095Y25221429D01*
X73935714Y25126191D01*
X73935714Y24888096D01*
X73888095Y24792858D01*
X73840476Y24745239D01*
X73745238Y24697620D01*
X73507142Y24697620D01*
X73411904Y24745239D01*
X73364285Y24792858D01*
%TO.C,U2*%
X28748095Y96177620D02*
X28748095Y95368096D01*
X28795714Y95272858D01*
X28843333Y95225239D01*
X28938571Y95177620D01*
X29129047Y95177620D01*
X29224285Y95225239D01*
X29271904Y95272858D01*
X29319523Y95368096D01*
X29319523Y96177620D01*
X29748095Y96082381D02*
X29795714Y96130000D01*
X29890952Y96177620D01*
X30129047Y96177620D01*
X30224285Y96130000D01*
X30271904Y96082381D01*
X30319523Y95987143D01*
X30319523Y95891905D01*
X30271904Y95749048D01*
X29700476Y95177620D01*
X30319523Y95177620D01*
%TO.C,R9*%
X88602380Y29183334D02*
X88126190Y28850000D01*
X88602380Y28611905D02*
X87602380Y28611905D01*
X87602380Y28992858D01*
X87650000Y29088096D01*
X87697619Y29135715D01*
X87792857Y29183334D01*
X87935714Y29183334D01*
X88030952Y29135715D01*
X88078571Y29088096D01*
X88126190Y28992858D01*
X88126190Y28611905D01*
X88602380Y29659524D02*
X88602380Y29850000D01*
X88554761Y29945239D01*
X88507142Y29992858D01*
X88364285Y30088096D01*
X88173809Y30135715D01*
X87792857Y30135715D01*
X87697619Y30088096D01*
X87650000Y30040477D01*
X87602380Y29945239D01*
X87602380Y29754762D01*
X87650000Y29659524D01*
X87697619Y29611905D01*
X87792857Y29564286D01*
X88030952Y29564286D01*
X88126190Y29611905D01*
X88173809Y29659524D01*
X88221428Y29754762D01*
X88221428Y29945239D01*
X88173809Y30040477D01*
X88126190Y30088096D01*
X88030952Y30135715D01*
%TO.C,R7*%
X56333333Y99697620D02*
X56000000Y100173810D01*
X55761904Y99697620D02*
X55761904Y100697620D01*
X56142857Y100697620D01*
X56238095Y100650000D01*
X56285714Y100602381D01*
X56333333Y100507143D01*
X56333333Y100364286D01*
X56285714Y100269048D01*
X56238095Y100221429D01*
X56142857Y100173810D01*
X55761904Y100173810D01*
X56666666Y100697620D02*
X57333333Y100697620D01*
X56904761Y99697620D01*
%TO.C,U3*%
X75963095Y23022620D02*
X75963095Y22213096D01*
X76010714Y22117858D01*
X76058333Y22070239D01*
X76153571Y22022620D01*
X76344047Y22022620D01*
X76439285Y22070239D01*
X76486904Y22117858D01*
X76534523Y22213096D01*
X76534523Y23022620D01*
X76915476Y23022620D02*
X77534523Y23022620D01*
X77201190Y22641667D01*
X77344047Y22641667D01*
X77439285Y22594048D01*
X77486904Y22546429D01*
X77534523Y22451191D01*
X77534523Y22213096D01*
X77486904Y22117858D01*
X77439285Y22070239D01*
X77344047Y22022620D01*
X77058333Y22022620D01*
X76963095Y22070239D01*
X76915476Y22117858D01*
%TO.C,D1*%
X66261904Y106047620D02*
X66261904Y107047620D01*
X66500000Y107047620D01*
X66642857Y107000000D01*
X66738095Y106904762D01*
X66785714Y106809524D01*
X66833333Y106619048D01*
X66833333Y106476191D01*
X66785714Y106285715D01*
X66738095Y106190477D01*
X66642857Y106095239D01*
X66500000Y106047620D01*
X66261904Y106047620D01*
X67785714Y106047620D02*
X67214285Y106047620D01*
X67500000Y106047620D02*
X67500000Y107047620D01*
X67404761Y106904762D01*
X67309523Y106809524D01*
X67214285Y106761905D01*
%TO.C,R6*%
X59163333Y102147620D02*
X58830000Y102623810D01*
X58591904Y102147620D02*
X58591904Y103147620D01*
X58972857Y103147620D01*
X59068095Y103100000D01*
X59115714Y103052381D01*
X59163333Y102957143D01*
X59163333Y102814286D01*
X59115714Y102719048D01*
X59068095Y102671429D01*
X58972857Y102623810D01*
X58591904Y102623810D01*
X60020476Y103147620D02*
X59830000Y103147620D01*
X59734761Y103100000D01*
X59687142Y103052381D01*
X59591904Y102909524D01*
X59544285Y102719048D01*
X59544285Y102338096D01*
X59591904Y102242858D01*
X59639523Y102195239D01*
X59734761Y102147620D01*
X59925238Y102147620D01*
X60020476Y102195239D01*
X60068095Y102242858D01*
X60115714Y102338096D01*
X60115714Y102576191D01*
X60068095Y102671429D01*
X60020476Y102719048D01*
X59925238Y102766667D01*
X59734761Y102766667D01*
X59639523Y102719048D01*
X59591904Y102671429D01*
X59544285Y102576191D01*
%TO.C,H2*%
X112738095Y62747620D02*
X112738095Y63747620D01*
X112738095Y63271429D02*
X113309523Y63271429D01*
X113309523Y62747620D02*
X113309523Y63747620D01*
X113738095Y63652381D02*
X113785714Y63700000D01*
X113880952Y63747620D01*
X114119047Y63747620D01*
X114214285Y63700000D01*
X114261904Y63652381D01*
X114309523Y63557143D01*
X114309523Y63461905D01*
X114261904Y63319048D01*
X113690476Y62747620D01*
X114309523Y62747620D01*
%TO.C,C6*%
X68657142Y13333334D02*
X68704761Y13285715D01*
X68752380Y13142858D01*
X68752380Y13047620D01*
X68704761Y12904762D01*
X68609523Y12809524D01*
X68514285Y12761905D01*
X68323809Y12714286D01*
X68180952Y12714286D01*
X67990476Y12761905D01*
X67895238Y12809524D01*
X67800000Y12904762D01*
X67752380Y13047620D01*
X67752380Y13142858D01*
X67800000Y13285715D01*
X67847619Y13333334D01*
X67752380Y14190477D02*
X67752380Y14000000D01*
X67800000Y13904762D01*
X67847619Y13857143D01*
X67990476Y13761905D01*
X68180952Y13714286D01*
X68561904Y13714286D01*
X68657142Y13761905D01*
X68704761Y13809524D01*
X68752380Y13904762D01*
X68752380Y14095239D01*
X68704761Y14190477D01*
X68657142Y14238096D01*
X68561904Y14285715D01*
X68323809Y14285715D01*
X68228571Y14238096D01*
X68180952Y14190477D01*
X68133333Y14095239D01*
X68133333Y13904762D01*
X68180952Y13809524D01*
X68228571Y13761905D01*
X68323809Y13714286D01*
%TO.C,RV1*%
X26404761Y37062620D02*
X26071428Y37538810D01*
X25833333Y37062620D02*
X25833333Y38062620D01*
X26214285Y38062620D01*
X26309523Y38015000D01*
X26357142Y37967381D01*
X26404761Y37872143D01*
X26404761Y37729286D01*
X26357142Y37634048D01*
X26309523Y37586429D01*
X26214285Y37538810D01*
X25833333Y37538810D01*
X26690476Y38062620D02*
X27023809Y37062620D01*
X27357142Y38062620D01*
X28214285Y37062620D02*
X27642857Y37062620D01*
X27928571Y37062620D02*
X27928571Y38062620D01*
X27833333Y37919762D01*
X27738095Y37824524D01*
X27642857Y37776905D01*
%TO.C,BZ1*%
X98119047Y38241429D02*
X98261904Y38193810D01*
X98309523Y38146191D01*
X98357142Y38050953D01*
X98357142Y37908096D01*
X98309523Y37812858D01*
X98261904Y37765239D01*
X98166666Y37717620D01*
X97785714Y37717620D01*
X97785714Y38717620D01*
X98119047Y38717620D01*
X98214285Y38670000D01*
X98261904Y38622381D01*
X98309523Y38527143D01*
X98309523Y38431905D01*
X98261904Y38336667D01*
X98214285Y38289048D01*
X98119047Y38241429D01*
X97785714Y38241429D01*
X98690476Y38717620D02*
X99357142Y38717620D01*
X98690476Y37717620D01*
X99357142Y37717620D01*
X100261904Y37717620D02*
X99690476Y37717620D01*
X99976190Y37717620D02*
X99976190Y38717620D01*
X99880952Y38574762D01*
X99785714Y38479524D01*
X99690476Y38431905D01*
%TO.C,R12*%
X47602380Y83857143D02*
X47126190Y83523810D01*
X47602380Y83285715D02*
X46602380Y83285715D01*
X46602380Y83666667D01*
X46650000Y83761905D01*
X46697619Y83809524D01*
X46792857Y83857143D01*
X46935714Y83857143D01*
X47030952Y83809524D01*
X47078571Y83761905D01*
X47126190Y83666667D01*
X47126190Y83285715D01*
X47602380Y84809524D02*
X47602380Y84238096D01*
X47602380Y84523810D02*
X46602380Y84523810D01*
X46745238Y84428572D01*
X46840476Y84333334D01*
X46888095Y84238096D01*
X46697619Y85190477D02*
X46650000Y85238096D01*
X46602380Y85333334D01*
X46602380Y85571429D01*
X46650000Y85666667D01*
X46697619Y85714286D01*
X46792857Y85761905D01*
X46888095Y85761905D01*
X47030952Y85714286D01*
X47602380Y85142858D01*
X47602380Y85761905D01*
%TO.C,H3*%
X58238095Y8247620D02*
X58238095Y9247620D01*
X58238095Y8771429D02*
X58809523Y8771429D01*
X58809523Y8247620D02*
X58809523Y9247620D01*
X59190476Y9247620D02*
X59809523Y9247620D01*
X59476190Y8866667D01*
X59619047Y8866667D01*
X59714285Y8819048D01*
X59761904Y8771429D01*
X59809523Y8676191D01*
X59809523Y8438096D01*
X59761904Y8342858D01*
X59714285Y8295239D01*
X59619047Y8247620D01*
X59333333Y8247620D01*
X59238095Y8295239D01*
X59190476Y8342858D01*
%TO.C,R10*%
X48102380Y28357143D02*
X47626190Y28023810D01*
X48102380Y27785715D02*
X47102380Y27785715D01*
X47102380Y28166667D01*
X47150000Y28261905D01*
X47197619Y28309524D01*
X47292857Y28357143D01*
X47435714Y28357143D01*
X47530952Y28309524D01*
X47578571Y28261905D01*
X47626190Y28166667D01*
X47626190Y27785715D01*
X48102380Y29309524D02*
X48102380Y28738096D01*
X48102380Y29023810D02*
X47102380Y29023810D01*
X47245238Y28928572D01*
X47340476Y28833334D01*
X47388095Y28738096D01*
X47102380Y29928572D02*
X47102380Y30023810D01*
X47150000Y30119048D01*
X47197619Y30166667D01*
X47292857Y30214286D01*
X47483333Y30261905D01*
X47721428Y30261905D01*
X47911904Y30214286D01*
X48007142Y30166667D01*
X48054761Y30119048D01*
X48102380Y30023810D01*
X48102380Y29928572D01*
X48054761Y29833334D01*
X48007142Y29785715D01*
X47911904Y29738096D01*
X47721428Y29690477D01*
X47483333Y29690477D01*
X47292857Y29738096D01*
X47197619Y29785715D01*
X47150000Y29833334D01*
X47102380Y29928572D01*
%TO.C,C1*%
X59707142Y98183334D02*
X59754761Y98135715D01*
X59802380Y97992858D01*
X59802380Y97897620D01*
X59754761Y97754762D01*
X59659523Y97659524D01*
X59564285Y97611905D01*
X59373809Y97564286D01*
X59230952Y97564286D01*
X59040476Y97611905D01*
X58945238Y97659524D01*
X58850000Y97754762D01*
X58802380Y97897620D01*
X58802380Y97992858D01*
X58850000Y98135715D01*
X58897619Y98183334D01*
X59802380Y99135715D02*
X59802380Y98564286D01*
X59802380Y98850000D02*
X58802380Y98850000D01*
X58945238Y98754762D01*
X59040476Y98659524D01*
X59088095Y98564286D01*
%TO.C,H1*%
X52988095Y112997620D02*
X52988095Y113997620D01*
X52988095Y113521429D02*
X53559523Y113521429D01*
X53559523Y112997620D02*
X53559523Y113997620D01*
X54559523Y112997620D02*
X53988095Y112997620D01*
X54273809Y112997620D02*
X54273809Y113997620D01*
X54178571Y113854762D01*
X54083333Y113759524D01*
X53988095Y113711905D01*
%TO.C,R1*%
X38183333Y86197620D02*
X37850000Y86673810D01*
X37611904Y86197620D02*
X37611904Y87197620D01*
X37992857Y87197620D01*
X38088095Y87150000D01*
X38135714Y87102381D01*
X38183333Y87007143D01*
X38183333Y86864286D01*
X38135714Y86769048D01*
X38088095Y86721429D01*
X37992857Y86673810D01*
X37611904Y86673810D01*
X39135714Y86197620D02*
X38564285Y86197620D01*
X38850000Y86197620D02*
X38850000Y87197620D01*
X38754761Y87054762D01*
X38659523Y86959524D01*
X38564285Y86911905D01*
%TO.C,R11*%
X50602380Y83857143D02*
X50126190Y83523810D01*
X50602380Y83285715D02*
X49602380Y83285715D01*
X49602380Y83666667D01*
X49650000Y83761905D01*
X49697619Y83809524D01*
X49792857Y83857143D01*
X49935714Y83857143D01*
X50030952Y83809524D01*
X50078571Y83761905D01*
X50126190Y83666667D01*
X50126190Y83285715D01*
X50602380Y84809524D02*
X50602380Y84238096D01*
X50602380Y84523810D02*
X49602380Y84523810D01*
X49745238Y84428572D01*
X49840476Y84333334D01*
X49888095Y84238096D01*
X50602380Y85761905D02*
X50602380Y85190477D01*
X50602380Y85476191D02*
X49602380Y85476191D01*
X49745238Y85380953D01*
X49840476Y85285715D01*
X49888095Y85190477D01*
%TO.C,DS1*%
X19965714Y77715120D02*
X19965714Y78715120D01*
X20203809Y78715120D01*
X20346666Y78667500D01*
X20441904Y78572262D01*
X20489523Y78477024D01*
X20537142Y78286548D01*
X20537142Y78143691D01*
X20489523Y77953215D01*
X20441904Y77857977D01*
X20346666Y77762739D01*
X20203809Y77715120D01*
X19965714Y77715120D01*
X20918095Y77762739D02*
X21060952Y77715120D01*
X21299047Y77715120D01*
X21394285Y77762739D01*
X21441904Y77810358D01*
X21489523Y77905596D01*
X21489523Y78000834D01*
X21441904Y78096072D01*
X21394285Y78143691D01*
X21299047Y78191310D01*
X21108571Y78238929D01*
X21013333Y78286548D01*
X20965714Y78334167D01*
X20918095Y78429405D01*
X20918095Y78524643D01*
X20965714Y78619881D01*
X21013333Y78667500D01*
X21108571Y78715120D01*
X21346666Y78715120D01*
X21489523Y78667500D01*
X22441904Y77715120D02*
X21870476Y77715120D01*
X22156190Y77715120D02*
X22156190Y78715120D01*
X22060952Y78572262D01*
X21965714Y78477024D01*
X21870476Y78429405D01*
%TO.C,R4*%
X102683333Y44697620D02*
X102350000Y45173810D01*
X102111904Y44697620D02*
X102111904Y45697620D01*
X102492857Y45697620D01*
X102588095Y45650000D01*
X102635714Y45602381D01*
X102683333Y45507143D01*
X102683333Y45364286D01*
X102635714Y45269048D01*
X102588095Y45221429D01*
X102492857Y45173810D01*
X102111904Y45173810D01*
X103540476Y45364286D02*
X103540476Y44697620D01*
X103302380Y45745239D02*
X103064285Y45030953D01*
X103683333Y45030953D01*
%TO.C,SW3*%
X37666666Y34895239D02*
X37809523Y34847620D01*
X38047619Y34847620D01*
X38142857Y34895239D01*
X38190476Y34942858D01*
X38238095Y35038096D01*
X38238095Y35133334D01*
X38190476Y35228572D01*
X38142857Y35276191D01*
X38047619Y35323810D01*
X37857142Y35371429D01*
X37761904Y35419048D01*
X37714285Y35466667D01*
X37666666Y35561905D01*
X37666666Y35657143D01*
X37714285Y35752381D01*
X37761904Y35800000D01*
X37857142Y35847620D01*
X38095238Y35847620D01*
X38238095Y35800000D01*
X38571428Y35847620D02*
X38809523Y34847620D01*
X39000000Y35561905D01*
X39190476Y34847620D01*
X39428571Y35847620D01*
X39714285Y35847620D02*
X40333333Y35847620D01*
X40000000Y35466667D01*
X40142857Y35466667D01*
X40238095Y35419048D01*
X40285714Y35371429D01*
X40333333Y35276191D01*
X40333333Y35038096D01*
X40285714Y34942858D01*
X40238095Y34895239D01*
X40142857Y34847620D01*
X39857142Y34847620D01*
X39761904Y34895239D01*
X39714285Y34942858D01*
%TO.C,C4*%
X78333333Y78142858D02*
X78285714Y78095239D01*
X78142857Y78047620D01*
X78047619Y78047620D01*
X77904761Y78095239D01*
X77809523Y78190477D01*
X77761904Y78285715D01*
X77714285Y78476191D01*
X77714285Y78619048D01*
X77761904Y78809524D01*
X77809523Y78904762D01*
X77904761Y79000000D01*
X78047619Y79047620D01*
X78142857Y79047620D01*
X78285714Y79000000D01*
X78333333Y78952381D01*
X79190476Y78714286D02*
X79190476Y78047620D01*
X78952380Y79095239D02*
X78714285Y78380953D01*
X79333333Y78380953D01*
%TO.C,SW2*%
X77666666Y34895239D02*
X77809523Y34847620D01*
X78047619Y34847620D01*
X78142857Y34895239D01*
X78190476Y34942858D01*
X78238095Y35038096D01*
X78238095Y35133334D01*
X78190476Y35228572D01*
X78142857Y35276191D01*
X78047619Y35323810D01*
X77857142Y35371429D01*
X77761904Y35419048D01*
X77714285Y35466667D01*
X77666666Y35561905D01*
X77666666Y35657143D01*
X77714285Y35752381D01*
X77761904Y35800000D01*
X77857142Y35847620D01*
X78095238Y35847620D01*
X78238095Y35800000D01*
X78571428Y35847620D02*
X78809523Y34847620D01*
X79000000Y35561905D01*
X79190476Y34847620D01*
X79428571Y35847620D01*
X79761904Y35752381D02*
X79809523Y35800000D01*
X79904761Y35847620D01*
X80142857Y35847620D01*
X80238095Y35800000D01*
X80285714Y35752381D01*
X80333333Y35657143D01*
X80333333Y35561905D01*
X80285714Y35419048D01*
X79714285Y34847620D01*
X80333333Y34847620D01*
%TO.C,Y1*%
X70273809Y79473810D02*
X70273809Y78997620D01*
X69940476Y79997620D02*
X70273809Y79473810D01*
X70607142Y79997620D01*
X71464285Y78997620D02*
X70892857Y78997620D01*
X71178571Y78997620D02*
X71178571Y79997620D01*
X71083333Y79854762D01*
X70988095Y79759524D01*
X70892857Y79711905D01*
%TO.C,C2*%
X60833333Y84292858D02*
X60785714Y84245239D01*
X60642857Y84197620D01*
X60547619Y84197620D01*
X60404761Y84245239D01*
X60309523Y84340477D01*
X60261904Y84435715D01*
X60214285Y84626191D01*
X60214285Y84769048D01*
X60261904Y84959524D01*
X60309523Y85054762D01*
X60404761Y85150000D01*
X60547619Y85197620D01*
X60642857Y85197620D01*
X60785714Y85150000D01*
X60833333Y85102381D01*
X61214285Y85102381D02*
X61261904Y85150000D01*
X61357142Y85197620D01*
X61595238Y85197620D01*
X61690476Y85150000D01*
X61738095Y85102381D01*
X61785714Y85007143D01*
X61785714Y84911905D01*
X61738095Y84769048D01*
X61166666Y84197620D01*
X61785714Y84197620D01*
%TO.C,R2*%
X27483333Y81697620D02*
X27150000Y82173810D01*
X26911904Y81697620D02*
X26911904Y82697620D01*
X27292857Y82697620D01*
X27388095Y82650000D01*
X27435714Y82602381D01*
X27483333Y82507143D01*
X27483333Y82364286D01*
X27435714Y82269048D01*
X27388095Y82221429D01*
X27292857Y82173810D01*
X26911904Y82173810D01*
X27864285Y82602381D02*
X27911904Y82650000D01*
X28007142Y82697620D01*
X28245238Y82697620D01*
X28340476Y82650000D01*
X28388095Y82602381D01*
X28435714Y82507143D01*
X28435714Y82411905D01*
X28388095Y82269048D01*
X27816666Y81697620D01*
X28435714Y81697620D01*
%TO.C,Y2*%
X18526190Y91523810D02*
X19002380Y91523810D01*
X18002380Y91190477D02*
X18526190Y91523810D01*
X18002380Y91857143D01*
X18097619Y92142858D02*
X18050000Y92190477D01*
X18002380Y92285715D01*
X18002380Y92523810D01*
X18050000Y92619048D01*
X18097619Y92666667D01*
X18192857Y92714286D01*
X18288095Y92714286D01*
X18430952Y92666667D01*
X19002380Y92095239D01*
X19002380Y92714286D01*
%TO.C,C3*%
X63833333Y78642858D02*
X63785714Y78595239D01*
X63642857Y78547620D01*
X63547619Y78547620D01*
X63404761Y78595239D01*
X63309523Y78690477D01*
X63261904Y78785715D01*
X63214285Y78976191D01*
X63214285Y79119048D01*
X63261904Y79309524D01*
X63309523Y79404762D01*
X63404761Y79500000D01*
X63547619Y79547620D01*
X63642857Y79547620D01*
X63785714Y79500000D01*
X63833333Y79452381D01*
X64166666Y79547620D02*
X64785714Y79547620D01*
X64452380Y79166667D01*
X64595238Y79166667D01*
X64690476Y79119048D01*
X64738095Y79071429D01*
X64785714Y78976191D01*
X64785714Y78738096D01*
X64738095Y78642858D01*
X64690476Y78595239D01*
X64595238Y78547620D01*
X64309523Y78547620D01*
X64214285Y78595239D01*
X64166666Y78642858D01*
%TO.C,R5*%
X103483333Y59197620D02*
X103150000Y59673810D01*
X102911904Y59197620D02*
X102911904Y60197620D01*
X103292857Y60197620D01*
X103388095Y60150000D01*
X103435714Y60102381D01*
X103483333Y60007143D01*
X103483333Y59864286D01*
X103435714Y59769048D01*
X103388095Y59721429D01*
X103292857Y59673810D01*
X102911904Y59673810D01*
X104388095Y60197620D02*
X103911904Y60197620D01*
X103864285Y59721429D01*
X103911904Y59769048D01*
X104007142Y59816667D01*
X104245238Y59816667D01*
X104340476Y59769048D01*
X104388095Y59721429D01*
X104435714Y59626191D01*
X104435714Y59388096D01*
X104388095Y59292858D01*
X104340476Y59245239D01*
X104245238Y59197620D01*
X104007142Y59197620D01*
X103911904Y59245239D01*
X103864285Y59292858D01*
%TO.C,C7*%
X44507142Y84333334D02*
X44554761Y84285715D01*
X44602380Y84142858D01*
X44602380Y84047620D01*
X44554761Y83904762D01*
X44459523Y83809524D01*
X44364285Y83761905D01*
X44173809Y83714286D01*
X44030952Y83714286D01*
X43840476Y83761905D01*
X43745238Y83809524D01*
X43650000Y83904762D01*
X43602380Y84047620D01*
X43602380Y84142858D01*
X43650000Y84285715D01*
X43697619Y84333334D01*
X43602380Y84666667D02*
X43602380Y85333334D01*
X44602380Y84904762D01*
%TO.C,R8*%
X68602380Y29183334D02*
X68126190Y28850000D01*
X68602380Y28611905D02*
X67602380Y28611905D01*
X67602380Y28992858D01*
X67650000Y29088096D01*
X67697619Y29135715D01*
X67792857Y29183334D01*
X67935714Y29183334D01*
X68030952Y29135715D01*
X68078571Y29088096D01*
X68126190Y28992858D01*
X68126190Y28611905D01*
X68030952Y29754762D02*
X67983333Y29659524D01*
X67935714Y29611905D01*
X67840476Y29564286D01*
X67792857Y29564286D01*
X67697619Y29611905D01*
X67650000Y29659524D01*
X67602380Y29754762D01*
X67602380Y29945239D01*
X67650000Y30040477D01*
X67697619Y30088096D01*
X67792857Y30135715D01*
X67840476Y30135715D01*
X67935714Y30088096D01*
X67983333Y30040477D01*
X68030952Y29945239D01*
X68030952Y29754762D01*
X68078571Y29659524D01*
X68126190Y29611905D01*
X68221428Y29564286D01*
X68411904Y29564286D01*
X68507142Y29611905D01*
X68554761Y29659524D01*
X68602380Y29754762D01*
X68602380Y29945239D01*
X68554761Y30040477D01*
X68507142Y30088096D01*
X68411904Y30135715D01*
X68221428Y30135715D01*
X68126190Y30088096D01*
X68078571Y30040477D01*
X68030952Y29945239D01*
%TO.C,U1*%
X40122380Y90748096D02*
X40931904Y90748096D01*
X41027142Y90795715D01*
X41074761Y90843334D01*
X41122380Y90938572D01*
X41122380Y91129048D01*
X41074761Y91224286D01*
X41027142Y91271905D01*
X40931904Y91319524D01*
X40122380Y91319524D01*
X41122380Y92319524D02*
X41122380Y91748096D01*
X41122380Y92033810D02*
X40122380Y92033810D01*
X40265238Y91938572D01*
X40360476Y91843334D01*
X40408095Y91748096D01*
D11*
%TO.C,SW4*%
X50000000Y98250000D02*
X44000000Y98250000D01*
X49900000Y104750000D02*
X44100000Y104750000D01*
X41900000Y103800000D02*
X41900000Y104800000D01*
X41900000Y104800000D02*
X42900000Y104800000D01*
X50100000Y102800000D02*
X50100000Y100200000D01*
X43900000Y102800000D02*
X43900000Y100200000D01*
%TO.C,SW1*%
X62000000Y27750000D02*
X56000000Y27750000D01*
X55900000Y32300000D02*
X55900000Y29700000D01*
X61900000Y34250000D02*
X56100000Y34250000D01*
X53900000Y33300000D02*
X53900000Y34300000D01*
X53900000Y34300000D02*
X54900000Y34300000D01*
X62100000Y32300000D02*
X62100000Y29700000D01*
%TO.C,Q1*%
X102260000Y47420000D02*
X100800000Y47420000D01*
X102260000Y47420000D02*
X102260000Y48350000D01*
X102260000Y50580000D02*
X100100000Y50580000D01*
X102260000Y50580000D02*
X102260000Y49650000D01*
%TO.C,U2*%
X32160000Y94630000D02*
X30510000Y94630000D01*
X26860000Y94630000D02*
X26860000Y84350000D01*
X28510000Y94630000D02*
X26860000Y94630000D01*
X26860000Y84350000D02*
X32160000Y84350000D01*
X32160000Y84350000D02*
X32160000Y94630000D01*
X28510000Y94630000D02*
G75*
G03*
X30510000Y94630000I1000000J0D01*
G01*
%TO.C,U3*%
X74255000Y21155000D02*
X71425000Y21155000D01*
X74255000Y14795000D02*
X73155000Y14795000D01*
X75755000Y21425000D02*
X74255000Y21425000D01*
X75755000Y14525000D02*
X74255000Y14525000D01*
X74255000Y14525000D02*
X74255000Y14795000D01*
X74255000Y21425000D02*
X74255000Y21155000D01*
%TO.C,D1*%
X71185000Y107460000D02*
X68500000Y107460000D01*
X71185000Y105540000D02*
X71185000Y107460000D01*
X68500000Y105540000D02*
X71185000Y105540000D01*
%TO.C,R6*%
X60650000Y107650000D02*
X57200000Y107650000D01*
X60650000Y103350000D02*
X57200000Y103350000D01*
X60675476Y103365612D02*
G75*
G03*
X60650000Y107650000I-1325476J2134388D01*
G01*
X57171973Y107632144D02*
G75*
G03*
X57200000Y103350000I1378027J-2132144D01*
G01*
%TO.C,RV1*%
X22115000Y26615000D02*
X31885000Y26615000D01*
X22115000Y36385000D02*
X22115000Y26615000D01*
X31885000Y36385000D02*
X31885000Y26615000D01*
X22115000Y36385000D02*
X31885000Y36385000D01*
%TO.C,BZ1*%
X92600000Y32500000D02*
G75*
G03*
X92600000Y29500001I6400000J-1500000D01*
G01*
X105230000Y31000000D02*
G75*
G03*
X105230000Y31000000I-6230000J0D01*
G01*
%TO.C,DS1*%
X18860000Y76997500D02*
X18860000Y40717500D01*
X90700660Y51357500D02*
X27200000Y51357500D01*
X25500000Y77357500D02*
X28500000Y77357500D01*
X22000000Y46357500D02*
X22000000Y71357500D01*
X95000000Y46357500D02*
X22000000Y46357500D01*
X91200000Y65857500D02*
X91200000Y51857500D01*
X27200000Y66357500D02*
X90700000Y66357500D01*
X18860000Y40717500D02*
X99140000Y40717500D01*
X99140000Y76997500D02*
X19660000Y76997500D01*
X99140000Y40717500D02*
X99140000Y76997500D01*
X95000000Y71357500D02*
X95000000Y46357500D01*
X26700280Y51858180D02*
X26700280Y65857500D01*
X18870000Y76997500D02*
X19660000Y76997500D01*
X22000000Y71357500D02*
X95000000Y71357500D01*
X91200000Y65857500D02*
G75*
G03*
X90700000Y66357500I-500000J0D01*
G01*
X27200660Y66359040D02*
G75*
G03*
X26700280Y65858660I0J-500380D01*
G01*
X26700280Y51858180D02*
G75*
G03*
X27200660Y51357800I500380J0D01*
G01*
X90700660Y51357760D02*
G75*
G03*
X91201040Y51858180I-60J500440D01*
G01*
%TO.C,SW3*%
X33900000Y33300000D02*
X33900000Y34300000D01*
X42100000Y32300000D02*
X42100000Y29700000D01*
X35900000Y32300000D02*
X35900000Y29700000D01*
X42000000Y27750000D02*
X36000000Y27750000D01*
X33900000Y34300000D02*
X34900000Y34300000D01*
X41900000Y34250000D02*
X36100000Y34250000D01*
%TO.C,SW2*%
X73900000Y33300000D02*
X73900000Y34300000D01*
X82100000Y32300000D02*
X82100000Y29700000D01*
X82000000Y27750000D02*
X76000000Y27750000D01*
X81900000Y34250000D02*
X76100000Y34250000D01*
X73900000Y34300000D02*
X74900000Y34300000D01*
X75900000Y32300000D02*
X75900000Y29700000D01*
%TO.C,Y1*%
X64850000Y80450000D02*
X77450000Y80450000D01*
X77450000Y85550000D02*
X64850000Y85550000D01*
X77450000Y80450000D02*
X77450000Y85550000D01*
%TO.C,Y2*%
X19600000Y90050000D02*
X21400000Y90050000D01*
X19550000Y91450000D02*
X19550000Y92550000D01*
X21450000Y91450000D02*
X21450000Y92550000D01*
%TO.C,U1*%
X41670000Y90510000D02*
X41670000Y88860000D01*
X41670000Y88860000D02*
X77350000Y88860000D01*
X41670000Y94160000D02*
X41670000Y92510000D01*
X77350000Y88860000D02*
X77350000Y94160000D01*
X77350000Y94160000D02*
X41670000Y94160000D01*
X41670000Y90510000D02*
G75*
G03*
X41670000Y92510000I0J1000000D01*
G01*
%TD*%
%LPC*%
D12*
%TO.C,H4*%
X4500000Y59000000D03*
%TD*%
D13*
%TO.C,SW4*%
X43000000Y103750000D03*
X51000000Y103750000D03*
X43000000Y99250000D03*
X51000000Y99250000D03*
%TD*%
%TO.C,SW1*%
X55000000Y33250000D03*
X63000000Y33250000D03*
X55000000Y28750000D03*
X63000000Y28750000D03*
%TD*%
D14*
%TO.C,R3*%
X31800000Y80500000D03*
X33500000Y80500000D03*
%TD*%
D15*
%TO.C,R13*%
X75500000Y102150000D03*
X75500000Y103850000D03*
%TD*%
D16*
%TO.C,Q1*%
X100500000Y49950000D03*
X100500000Y48050000D03*
X102500000Y49000000D03*
%TD*%
D14*
%TO.C,C5*%
X72300000Y23500000D03*
X74000000Y23500000D03*
%TD*%
D17*
%TO.C,U2*%
X25700000Y93300000D03*
D18*
X25700000Y90760000D03*
X25700000Y88220000D03*
X25700000Y85680000D03*
X33320000Y85680000D03*
X33320000Y88220000D03*
X33320000Y90760000D03*
X33320000Y93300000D03*
%TD*%
D15*
%TO.C,R9*%
X86500000Y30200000D03*
X86500000Y28500000D03*
%TD*%
D14*
%TO.C,R7*%
X55650000Y98500000D03*
X57350000Y98500000D03*
%TD*%
D19*
%TO.C,U3*%
X72525000Y20255000D03*
D20*
X78825000Y17975000D03*
D19*
X72525000Y15695000D03*
%TD*%
D21*
%TO.C,D1*%
X70437500Y106500000D03*
X68562500Y106500000D03*
%TD*%
D22*
%TO.C,R6*%
X60600000Y105500000D03*
X57200000Y105500000D03*
%TD*%
D12*
%TO.C,H2*%
X113500000Y59000000D03*
%TD*%
D15*
%TO.C,C6*%
X66650000Y14350000D03*
X66650000Y12650000D03*
%TD*%
D23*
%TO.C,RV1*%
X27015000Y28960000D03*
X29555000Y31500000D03*
X27015000Y34040000D03*
%TD*%
D24*
%TO.C,BZ1*%
X96500000Y31000000D03*
D25*
X101500000Y31000000D03*
%TD*%
D15*
%TO.C,R12*%
X45500000Y85350000D03*
X45500000Y83650000D03*
%TD*%
D12*
%TO.C,H3*%
X59000000Y4500000D03*
%TD*%
D15*
%TO.C,R10*%
X46000000Y29850000D03*
X46000000Y28150000D03*
%TD*%
%TO.C,C1*%
X61000000Y97500000D03*
X61000000Y99200000D03*
%TD*%
D12*
%TO.C,H1*%
X59000000Y113500000D03*
%TD*%
D14*
%TO.C,R1*%
X37500000Y85000000D03*
X39200000Y85000000D03*
%TD*%
D15*
%TO.C,R11*%
X48500000Y85350000D03*
X48500000Y83650000D03*
%TD*%
D26*
%TO.C,DS1*%
X96500000Y74357500D03*
X96499480Y43356800D03*
X21500900Y43356800D03*
X21500900Y74357500D03*
D27*
X27000000Y74357500D03*
D28*
X29540000Y74357500D03*
X32080000Y74357500D03*
X34620000Y74357500D03*
X37160000Y74357500D03*
X39700000Y74357500D03*
X42240000Y74357500D03*
X44780000Y74357500D03*
X47320000Y74357500D03*
X49860000Y74357500D03*
X52400000Y74357500D03*
X54940000Y74357500D03*
X57480000Y74357500D03*
X60020000Y74357500D03*
X62560000Y74357500D03*
X65100000Y74357500D03*
%TD*%
D14*
%TO.C,R4*%
X102000000Y43500000D03*
X103700000Y43500000D03*
%TD*%
D13*
%TO.C,SW3*%
X35000000Y33250000D03*
X43000000Y33250000D03*
X35000000Y28750000D03*
X43000000Y28750000D03*
%TD*%
D14*
%TO.C,C4*%
X74800000Y78500000D03*
X76500000Y78500000D03*
%TD*%
D13*
%TO.C,SW2*%
X75000000Y33250000D03*
X83000000Y33250000D03*
X75000000Y28750000D03*
X83000000Y28750000D03*
%TD*%
D29*
%TO.C,Y1*%
X75000000Y83000000D03*
X66500000Y83000000D03*
%TD*%
D14*
%TO.C,C2*%
X60150000Y83000000D03*
X61850000Y83000000D03*
%TD*%
%TO.C,R2*%
X26800000Y80500000D03*
X28500000Y80500000D03*
%TD*%
D30*
%TO.C,Y2*%
X20500000Y90750000D03*
X20500000Y93250000D03*
%TD*%
D14*
%TO.C,C3*%
X66150000Y79000000D03*
X67850000Y79000000D03*
%TD*%
%TO.C,R5*%
X102800000Y58000000D03*
X104500000Y58000000D03*
%TD*%
D15*
%TO.C,C7*%
X42500000Y85350000D03*
X42500000Y83650000D03*
%TD*%
%TO.C,R8*%
X66500000Y30200000D03*
X66500000Y28500000D03*
%TD*%
D17*
%TO.C,U1*%
X43000000Y87700000D03*
D18*
X45540000Y87700000D03*
X48080000Y87700000D03*
X50620000Y87700000D03*
X53160000Y87700000D03*
X55700000Y87700000D03*
X58240000Y87700000D03*
X60780000Y87700000D03*
X63320000Y87700000D03*
X65860000Y87700000D03*
X68400000Y87700000D03*
X70940000Y87700000D03*
X73480000Y87700000D03*
X76020000Y87700000D03*
X76020000Y95320000D03*
X73480000Y95320000D03*
X70940000Y95320000D03*
X68400000Y95320000D03*
X65860000Y95320000D03*
X63320000Y95320000D03*
X60780000Y95320000D03*
X58240000Y95320000D03*
X55700000Y95320000D03*
X53160000Y95320000D03*
X50620000Y95320000D03*
X48080000Y95320000D03*
X45540000Y95320000D03*
X43000000Y95320000D03*
%TD*%
D31*
%TO.C,J2*%
X62500000Y21840000D03*
D32*
X60200000Y16540000D03*
X56500000Y19040000D03*
%TD*%
D33*
%TO.C,J1*%
X65975000Y102275000D03*
D34*
X65975000Y99735000D03*
X68515000Y102275000D03*
X68515000Y99735000D03*
X71055000Y102275000D03*
X71055000Y99735000D03*
%TD*%
D33*
%TO.C,J3*%
X55850000Y80500000D03*
D34*
X53310000Y80500000D03*
X50770000Y80500000D03*
X48230000Y80500000D03*
X45690000Y80500000D03*
X43150000Y80500000D03*
%TD*%
D35*
%TO.C,BT1*%
X16000017Y59613686D03*
D26*
X16000017Y39123686D03*
%TD*%
M02*
