M48
; DRILL file {KiCad (6.0.5)} date Tue Jul 26 12:18:38 2022
; FORMAT={-:-/ absolute / inch / decimal}
; #@! TF.CreationDate,2022-07-26T12:18:38-04:00
; #@! TF.GenerationSoftware,Kicad,Pcbnew,(6.0.5)
; #@! TF.FileFunction,MixedPlating,1,2
FMAT,2
INCH
; #@! TA.AperFunction,Plated,PTH,ViaDrill
T1C0.0157
; #@! TA.AperFunction,Plated,PTH,ComponentDrill
T2C0.0315
; #@! TA.AperFunction,Plated,PTH,ComponentDrill
T3C0.0394
; #@! TA.AperFunction,Plated,PTH,ComponentDrill
T4C0.0472
; #@! TA.AperFunction,Plated,PTH,ComponentDrill
T5C0.0591
; #@! TA.AperFunction,Plated,PTH,ComponentDrill
T6C0.0984
; #@! TA.AperFunction,NonPlated,NPTH,ComponentDrill
T7C0.1260
%
G90
G05
T1
X1.378Y1.3976
X1.4173Y2.6772
X1.5551Y2.7362
X1.6929Y4.0354
X1.6929Y3.9764
X1.6929Y1.3976
X1.6929Y1.2205
X1.9094Y2.6772
X2.0079Y4.0354
X2.0079Y2.7362
X2.0866Y3.622
X2.1654Y1.3976
X2.1654Y1.2205
X2.185Y3.8189
X2.4016Y3.9567
X2.4409Y3.3268
X2.4803Y1.3976
X2.6378Y0.4331
X2.6772Y3.0512
X2.9528Y1.3976
X2.9724Y3.9567
X2.9724Y0.9252
X3.0118Y3.0315
X3.0512Y0.9252
X3.1033Y0.8789
X3.2087Y3.622
X3.2677Y1.3976
X3.2677Y1.2205
X3.5827Y3.7598
X3.937Y2.2835
X3.9567Y1.8307
T2
X1.0118Y3.6732
X1.0118Y3.5732
X1.0118Y3.4732
X1.0118Y3.3732
X1.0636Y1.3402
X1.0636Y1.1402
X1.1636Y1.2402
X1.3118Y3.6732
X1.3118Y3.5732
X1.3118Y3.4732
X1.3118Y3.3732
X1.6929Y3.7528
X1.6929Y3.4528
X1.7929Y3.7528
X1.7929Y3.4528
X1.8929Y3.7528
X1.8929Y3.4528
X1.9929Y3.7528
X1.9929Y3.4528
X2.0929Y3.7528
X2.0929Y3.4528
X2.1929Y3.7528
X2.1929Y3.4528
X2.252Y4.1535
X2.2929Y3.7528
X2.2929Y3.4528
X2.3858Y4.1535
X2.3929Y3.7528
X2.3929Y3.4528
X2.4929Y3.7528
X2.4929Y3.4528
X2.5929Y3.7528
X2.5929Y3.4528
X2.6929Y3.7528
X2.6929Y3.4528
X2.7929Y3.7528
X2.7929Y3.4528
X2.8929Y3.7528
X2.8929Y3.4528
X2.9929Y3.7528
X2.9929Y3.4528
T3
X1.6988Y3.1693
X1.7988Y3.1693
X1.8988Y3.1693
X1.9988Y3.1693
X2.0988Y3.1693
X2.1988Y3.1693
X2.5974Y4.0266
X2.5974Y3.9266
X2.6974Y4.0266
X2.6974Y3.9266
X2.7974Y4.0266
X2.7974Y3.9266
X3.7992Y1.2205
X3.9961Y1.2205
T4
X1.063Y2.9275
X1.163Y2.9275
X1.263Y2.9275
X1.363Y2.9275
X1.463Y2.9275
X1.563Y2.9275
X1.663Y2.9275
X1.763Y2.9275
X1.863Y2.9275
X1.963Y2.9275
X2.063Y2.9275
X2.163Y2.9275
X2.263Y2.9275
X2.363Y2.9275
X2.463Y2.9275
X2.563Y2.9275
T5
X0.6299Y2.347
X0.6299Y1.5403
T6
X0.8465Y2.9275
X0.8465Y1.707
X3.7992Y1.707
X3.7992Y2.9275
T7
X0.1772Y2.3228
X2.3228Y4.4685
X2.3228Y0.1772
X4.4685Y2.3228
T3
G00X2.2638Y0.7496
M15
G01X2.185Y0.7496
M16
G05
G00X2.4094Y0.6512
M15
G01X2.3307Y0.6512
M16
G05
G00X2.4606Y0.8106
M15
G01X2.4606Y0.9091
M16
G05
T0
M30
