%TF.GenerationSoftware,KiCad,Pcbnew,(6.0.5)*%
%TF.CreationDate,2022-07-26T12:17:50-04:00*%
%TF.ProjectId,Clock_design,436c6f63-6b5f-4646-9573-69676e2e6b69,rev?*%
%TF.SameCoordinates,PX56c8cc0PY97a25c0*%
%TF.FileFunction,Soldermask,Bot*%
%TF.FilePolarity,Negative*%
%FSLAX46Y46*%
G04 Gerber Fmt 4.6, Leading zero omitted, Abs format (unit mm)*
G04 Created by KiCad (PCBNEW (6.0.5)) date 2022-07-26 12:17:50*
%MOMM*%
%LPD*%
G01*
G04 APERTURE LIST*
G04 Aperture macros list*
%AMRoundRect*
0 Rectangle with rounded corners*
0 $1 Rounding radius*
0 $2 $3 $4 $5 $6 $7 $8 $9 X,Y pos of 4 corners*
0 Add a 4 corners polygon primitive as box body*
4,1,4,$2,$3,$4,$5,$6,$7,$8,$9,$2,$3,0*
0 Add four circle primitives for the rounded corners*
1,1,$1+$1,$2,$3*
1,1,$1+$1,$4,$5*
1,1,$1+$1,$6,$7*
1,1,$1+$1,$8,$9*
0 Add four rect primitives between the rounded corners*
20,1,$1+$1,$2,$3,$4,$5,0*
20,1,$1+$1,$4,$5,$6,$7,0*
20,1,$1+$1,$6,$7,$8,$9,0*
20,1,$1+$1,$8,$9,$2,$3,0*%
G04 Aperture macros list end*
%ADD10C,3.200000*%
%ADD11R,1.600000X1.600000*%
%ADD12O,1.600000X1.600000*%
%ADD13C,1.600000*%
%ADD14C,1.440000*%
%ADD15R,2.000000X2.000000*%
%ADD16C,2.000000*%
%ADD17C,3.000000*%
%ADD18R,1.800000X2.600000*%
%ADD19O,1.800000X2.600000*%
%ADD20RoundRect,0.500000X0.500000X-1.750000X0.500000X1.750000X-0.500000X1.750000X-0.500000X-1.750000X0*%
%ADD21RoundRect,0.500000X1.500000X0.500000X-1.500000X0.500000X-1.500000X-0.500000X1.500000X-0.500000X0*%
%ADD22R,1.700000X1.700000*%
%ADD23O,1.700000X1.700000*%
%ADD24R,3.000000X3.000000*%
G04 APERTURE END LIST*
D10*
%TO.C,H4*%
X4500000Y59000000D03*
%TD*%
D11*
%TO.C,U2*%
X25700000Y93300000D03*
D12*
X25700000Y90760000D03*
X25700000Y88220000D03*
X25700000Y85680000D03*
X33320000Y85680000D03*
X33320000Y88220000D03*
X33320000Y90760000D03*
X33320000Y93300000D03*
%TD*%
D13*
%TO.C,R6*%
X60600000Y105500000D03*
X57200000Y105500000D03*
%TD*%
D10*
%TO.C,H2*%
X113500000Y59000000D03*
%TD*%
D14*
%TO.C,RV1*%
X27015000Y28960000D03*
X29555000Y31500000D03*
X27015000Y34040000D03*
%TD*%
D15*
%TO.C,BZ1*%
X96500000Y31000000D03*
D16*
X101500000Y31000000D03*
%TD*%
D10*
%TO.C,H3*%
X59000000Y4500000D03*
%TD*%
%TO.C,H1*%
X59000000Y113500000D03*
%TD*%
D17*
%TO.C,DS1*%
X96500000Y74357500D03*
X96499480Y43356800D03*
X21500900Y43356800D03*
X21500900Y74357500D03*
D18*
X27000000Y74357500D03*
D19*
X29540000Y74357500D03*
X32080000Y74357500D03*
X34620000Y74357500D03*
X37160000Y74357500D03*
X39700000Y74357500D03*
X42240000Y74357500D03*
X44780000Y74357500D03*
X47320000Y74357500D03*
X49860000Y74357500D03*
X52400000Y74357500D03*
X54940000Y74357500D03*
X57480000Y74357500D03*
X60020000Y74357500D03*
X62560000Y74357500D03*
X65100000Y74357500D03*
%TD*%
D11*
%TO.C,U1*%
X43000000Y87700000D03*
D12*
X45540000Y87700000D03*
X48080000Y87700000D03*
X50620000Y87700000D03*
X53160000Y87700000D03*
X55700000Y87700000D03*
X58240000Y87700000D03*
X60780000Y87700000D03*
X63320000Y87700000D03*
X65860000Y87700000D03*
X68400000Y87700000D03*
X70940000Y87700000D03*
X73480000Y87700000D03*
X76020000Y87700000D03*
X76020000Y95320000D03*
X73480000Y95320000D03*
X70940000Y95320000D03*
X68400000Y95320000D03*
X65860000Y95320000D03*
X63320000Y95320000D03*
X60780000Y95320000D03*
X58240000Y95320000D03*
X55700000Y95320000D03*
X53160000Y95320000D03*
X50620000Y95320000D03*
X48080000Y95320000D03*
X45540000Y95320000D03*
X43000000Y95320000D03*
%TD*%
D20*
%TO.C,J2*%
X62500000Y21840000D03*
D21*
X60200000Y16540000D03*
X56500000Y19040000D03*
%TD*%
D22*
%TO.C,J1*%
X65975000Y102275000D03*
D23*
X65975000Y99735000D03*
X68515000Y102275000D03*
X68515000Y99735000D03*
X71055000Y102275000D03*
X71055000Y99735000D03*
%TD*%
D22*
%TO.C,J3*%
X55850000Y80500000D03*
D23*
X53310000Y80500000D03*
X50770000Y80500000D03*
X48230000Y80500000D03*
X45690000Y80500000D03*
X43150000Y80500000D03*
%TD*%
D24*
%TO.C,BT1*%
X16000017Y59613686D03*
D17*
X16000017Y39123686D03*
%TD*%
M02*
